<?xml version="1.0" encoding="UTF-8"?>
<svg version="1.1" xmlns="http://www.w3.org/2000/svg" width="500" height="500">
<path d="M0 0 C2.187557 1.13217842 4.39201727 2.23272398 6.6171875 3.2890625 C13.86288627 6.72912906 20.07861201 10.93344202 26.44921875 15.78515625 C27.43921875 16.44515625 28.42921875 17.10515625 29.44921875 17.78515625 C29.44921875 18.44515625 29.44921875 19.10515625 29.44921875 19.78515625 C30.03574219 20.05457031 30.62226563 20.32398438 31.2265625 20.6015625 C40.0370998 25.29328974 50.00911863 35.4894554 55.44921875 43.78515625 C55.44921875 44.44515625 55.44921875 45.10515625 55.44921875 45.78515625 C56.10921875 45.78515625 56.76921875 45.78515625 57.44921875 45.78515625 C58.65429687 47.20629883 58.65429687 47.20629883 59.98046875 49.1796875 C60.70169922 50.24219727 60.70169922 50.24219727 61.4375 51.32617188 C61.93636719 52.07576172 62.43523437 52.82535156 62.94921875 53.59765625 C63.44808594 54.33564453 63.94695312 55.07363281 64.4609375 55.83398438 C65.7971753 57.81326423 67.12540265 59.79755472 68.44921875 61.78515625 C69.10921875 62.77515625 69.76921875 63.76515625 70.44921875 64.78515625 C70.44921875 65.77515625 70.44921875 66.76515625 70.44921875 67.78515625 C71.10921875 67.78515625 71.76921875 67.78515625 72.44921875 67.78515625 C74.51331013 72.45835191 76.56277873 77.13744402 78.59472656 81.82470703 C79.2623695 83.35647069 79.94311628 84.8825246 80.62890625 86.40625 C96.54175091 123.29511716 94.84544461 167.80142044 80.88671875 204.91015625 C78.85959436 209.92023268 76.71813596 214.87973189 74.44921875 219.78515625 C73.78921875 219.78515625 73.12921875 219.78515625 72.44921875 219.78515625 C72.33707031 220.34074219 72.22492188 220.89632812 72.109375 221.46875 C69.60720192 230.2485644 63.33036771 238.93706163 57.44921875 245.78515625 C56.78921875 245.78515625 56.12921875 245.78515625 55.44921875 245.78515625 C55.17980469 246.37167969 54.91039062 246.95820313 54.6328125 247.5625 C51.31407127 253.79472363 45.55814505 258.78459955 40.63671875 263.78515625 C40.15662354 264.27830322 39.67652832 264.7714502 39.18188477 265.27954102 C37.97640801 266.48800956 36.71660169 267.64177927 35.44921875 268.78515625 C34.78921875 268.78515625 34.12921875 268.78515625 33.44921875 268.78515625 C33.44921875 269.44515625 33.44921875 270.10515625 33.44921875 270.78515625 C32.12921875 271.11515625 30.80921875 271.44515625 29.44921875 271.78515625 C29.44921875 272.44515625 29.44921875 273.10515625 29.44921875 273.78515625 C-2.33621633 301.08323579 -46.42199511 310.23464623 -87.24609375 307.5078125 C-98.63959042 306.54985307 -109.57146054 303.89399616 -120.55078125 300.78515625 C-121.68515625 300.46546875 -122.81953125 300.14578125 -123.98828125 299.81640625 C-135.05792488 296.40130343 -145.15583535 290.64405481 -155.24609375 285.046875 C-157.32574554 283.90835376 -159.42264856 282.82960847 -161.55078125 281.78515625 C-161.55078125 281.12515625 -161.55078125 280.46515625 -161.55078125 279.78515625 C-162.60265625 279.41390625 -162.60265625 279.41390625 -163.67578125 279.03515625 C-166.94592673 277.61335387 -169.69190325 275.91269337 -172.55078125 273.78515625 C-172.55078125 273.12515625 -172.55078125 272.46515625 -172.55078125 271.78515625 C-173.16953125 271.47578125 -173.78828125 271.16640625 -174.42578125 270.84765625 C-175.80078125 270.16015625 -177.17578125 269.47265625 -178.55078125 268.78515625 C-178.55078125 268.12515625 -178.55078125 267.46515625 -178.55078125 266.78515625 C-179.36289063 266.4603125 -179.36289063 266.4603125 -180.19140625 266.12890625 C-183.36723469 264.32015628 -185.75806206 261.86791826 -188.30078125 259.28515625 C-188.80738281 258.78628906 -189.31398437 258.28742188 -189.8359375 257.7734375 C-193.55078125 254.03856764 -193.55078125 254.03856764 -193.55078125 251.78515625 C-194.21078125 251.78515625 -194.87078125 251.78515625 -195.55078125 251.78515625 C-195.88078125 250.46515625 -196.21078125 249.14515625 -196.55078125 247.78515625 C-197.21078125 247.78515625 -197.87078125 247.78515625 -198.55078125 247.78515625 C-198.55078125 247.12515625 -198.55078125 246.46515625 -198.55078125 245.78515625 C-199.21078125 245.78515625 -199.87078125 245.78515625 -200.55078125 245.78515625 C-202.35868987 243.29852099 -204.03333489 240.81629957 -205.67578125 238.22265625 C-206.16643066 237.4541333 -206.65708008 236.68561035 -207.16259766 235.89379883 C-229.95940273 199.75116281 -240.08264346 156.79900068 -231.15478516 114.38525391 C-228.12779673 101.35476612 -224.35022948 88.85321351 -218.55078125 76.78515625 C-217.95753052 75.52795776 -217.95753052 75.52795776 -217.35229492 74.24536133 C-212.29087104 63.60661732 -206.12106867 52.83257292 -198.55078125 43.78515625 C-197.89078125 43.78515625 -197.23078125 43.78515625 -196.55078125 43.78515625 C-196.28910156 43.20636719 -196.02742188 42.62757813 -195.7578125 42.03125 C-192.6586774 36.26425103 -187.36702982 31.18858351 -182.55078125 26.78515625 C-181.89078125 26.78515625 -181.23078125 26.78515625 -180.55078125 26.78515625 C-180.55078125 26.12515625 -180.55078125 25.46515625 -180.55078125 24.78515625 C-177.08924279 21.78515625 -177.08924279 21.78515625 -174.55078125 21.78515625 C-174.55078125 21.12515625 -174.55078125 20.46515625 -174.55078125 19.78515625 C-172.81529956 18.33988889 -171.01102162 16.97643405 -169.17578125 15.66015625 C-168.17804688 14.93570313 -167.1803125 14.21125 -166.15234375 13.46484375 C-163.55078125 11.78515625 -163.55078125 11.78515625 -161.55078125 11.78515625 C-161.55078125 11.12515625 -161.55078125 10.46515625 -161.55078125 9.78515625 C-111.31373041 -17.28870348 -52.85092974 -27.38480518 0 0 Z " fill="#F9EDD4" transform="translate(321.55078125,103.21484375)"/>
<path d="M0 0 C2.187557 1.13217842 4.39201727 2.23272398 6.6171875 3.2890625 C13.86288627 6.72912906 20.07861201 10.93344202 26.44921875 15.78515625 C27.43921875 16.44515625 28.42921875 17.10515625 29.44921875 17.78515625 C29.44921875 18.44515625 29.44921875 19.10515625 29.44921875 19.78515625 C30.03574219 20.05457031 30.62226563 20.32398438 31.2265625 20.6015625 C40.0370998 25.29328974 50.00911863 35.4894554 55.44921875 43.78515625 C55.44921875 44.44515625 55.44921875 45.10515625 55.44921875 45.78515625 C56.10921875 45.78515625 56.76921875 45.78515625 57.44921875 45.78515625 C58.65429687 47.20629883 58.65429687 47.20629883 59.98046875 49.1796875 C60.70169922 50.24219727 60.70169922 50.24219727 61.4375 51.32617188 C61.93636719 52.07576172 62.43523437 52.82535156 62.94921875 53.59765625 C63.44808594 54.33564453 63.94695312 55.07363281 64.4609375 55.83398438 C65.7971753 57.81326423 67.12540265 59.79755472 68.44921875 61.78515625 C69.10921875 62.77515625 69.76921875 63.76515625 70.44921875 64.78515625 C70.44921875 65.77515625 70.44921875 66.76515625 70.44921875 67.78515625 C71.10921875 67.78515625 71.76921875 67.78515625 72.44921875 67.78515625 C74.51331013 72.45835191 76.56277873 77.13744402 78.59472656 81.82470703 C79.2623695 83.35647069 79.94311628 84.8825246 80.62890625 86.40625 C96.54175091 123.29511716 94.84544461 167.80142044 80.88671875 204.91015625 C78.85959436 209.92023268 76.71813596 214.87973189 74.44921875 219.78515625 C73.78921875 219.78515625 73.12921875 219.78515625 72.44921875 219.78515625 C72.33707031 220.34074219 72.22492188 220.89632812 72.109375 221.46875 C69.60720192 230.2485644 63.33036771 238.93706163 57.44921875 245.78515625 C56.78921875 245.78515625 56.12921875 245.78515625 55.44921875 245.78515625 C55.17980469 246.37167969 54.91039062 246.95820313 54.6328125 247.5625 C51.31407127 253.79472363 45.55814505 258.78459955 40.63671875 263.78515625 C40.15662354 264.27830322 39.67652832 264.7714502 39.18188477 265.27954102 C37.97640801 266.48800956 36.71660169 267.64177927 35.44921875 268.78515625 C34.78921875 268.78515625 34.12921875 268.78515625 33.44921875 268.78515625 C33.44921875 269.44515625 33.44921875 270.10515625 33.44921875 270.78515625 C32.12921875 271.11515625 30.80921875 271.44515625 29.44921875 271.78515625 C29.44921875 272.44515625 29.44921875 273.10515625 29.44921875 273.78515625 C-2.33621633 301.08323579 -46.42199511 310.23464623 -87.24609375 307.5078125 C-98.63959042 306.54985307 -109.57146054 303.89399616 -120.55078125 300.78515625 C-121.68515625 300.46546875 -122.81953125 300.14578125 -123.98828125 299.81640625 C-135.05792488 296.40130343 -145.15583535 290.64405481 -155.24609375 285.046875 C-157.32574554 283.90835376 -159.42264856 282.82960847 -161.55078125 281.78515625 C-161.55078125 281.12515625 -161.55078125 280.46515625 -161.55078125 279.78515625 C-162.60265625 279.41390625 -162.60265625 279.41390625 -163.67578125 279.03515625 C-166.94592673 277.61335387 -169.69190325 275.91269337 -172.55078125 273.78515625 C-172.55078125 273.12515625 -172.55078125 272.46515625 -172.55078125 271.78515625 C-173.16953125 271.47578125 -173.78828125 271.16640625 -174.42578125 270.84765625 C-175.80078125 270.16015625 -177.17578125 269.47265625 -178.55078125 268.78515625 C-178.55078125 268.12515625 -178.55078125 267.46515625 -178.55078125 266.78515625 C-179.36289063 266.4603125 -179.36289063 266.4603125 -180.19140625 266.12890625 C-183.36723469 264.32015628 -185.75806206 261.86791826 -188.30078125 259.28515625 C-188.80738281 258.78628906 -189.31398437 258.28742188 -189.8359375 257.7734375 C-193.55078125 254.03856764 -193.55078125 254.03856764 -193.55078125 251.78515625 C-194.21078125 251.78515625 -194.87078125 251.78515625 -195.55078125 251.78515625 C-195.88078125 250.46515625 -196.21078125 249.14515625 -196.55078125 247.78515625 C-197.21078125 247.78515625 -197.87078125 247.78515625 -198.55078125 247.78515625 C-198.55078125 247.12515625 -198.55078125 246.46515625 -198.55078125 245.78515625 C-199.21078125 245.78515625 -199.87078125 245.78515625 -200.55078125 245.78515625 C-202.35868987 243.29852099 -204.03333489 240.81629957 -205.67578125 238.22265625 C-206.16643066 237.4541333 -206.65708008 236.68561035 -207.16259766 235.89379883 C-229.95940273 199.75116281 -240.08264346 156.79900068 -231.15478516 114.38525391 C-228.12779673 101.35476612 -224.35022948 88.85321351 -218.55078125 76.78515625 C-217.95753052 75.52795776 -217.95753052 75.52795776 -217.35229492 74.24536133 C-212.29087104 63.60661732 -206.12106867 52.83257292 -198.55078125 43.78515625 C-197.89078125 43.78515625 -197.23078125 43.78515625 -196.55078125 43.78515625 C-196.28910156 43.20636719 -196.02742188 42.62757813 -195.7578125 42.03125 C-192.6586774 36.26425103 -187.36702982 31.18858351 -182.55078125 26.78515625 C-181.89078125 26.78515625 -181.23078125 26.78515625 -180.55078125 26.78515625 C-180.55078125 26.12515625 -180.55078125 25.46515625 -180.55078125 24.78515625 C-177.08924279 21.78515625 -177.08924279 21.78515625 -174.55078125 21.78515625 C-174.55078125 21.12515625 -174.55078125 20.46515625 -174.55078125 19.78515625 C-172.81529956 18.33988889 -171.01102162 16.97643405 -169.17578125 15.66015625 C-168.17804688 14.93570313 -167.1803125 14.21125 -166.15234375 13.46484375 C-163.55078125 11.78515625 -163.55078125 11.78515625 -161.55078125 11.78515625 C-161.55078125 11.12515625 -161.55078125 10.46515625 -161.55078125 9.78515625 C-111.31373041 -17.28870348 -52.85092974 -27.38480518 0 0 Z M-97.55078125 3.78515625 C-98.82050781 3.97335938 -100.09023437 4.1615625 -101.3984375 4.35546875 C-112.42661019 6.25826404 -122.35173293 10.2841775 -132.55078125 14.78515625 C-133.27475098 15.1011377 -133.9987207 15.41711914 -134.74462891 15.74267578 C-168.35847844 30.66371414 -192.75154536 59.862147 -206.984375 93.13671875 C-208.32881306 96.64649785 -209.46736994 100.18939719 -210.55078125 103.78515625 C-210.77926758 104.48592285 -211.00775391 105.18668945 -211.24316406 105.90869141 C-219.34821235 131.41381967 -218.22245198 162.3544778 -210.55078125 187.78515625 C-210.19511815 189.12165424 -209.84206991 190.45885205 -209.4921875 191.796875 C-201.63686338 218.87328526 -179.32386628 250.54063236 -154.55078125 264.78515625 C-153.89078125 264.78515625 -153.23078125 264.78515625 -152.55078125 264.78515625 C-152.55078125 265.44515625 -152.55078125 266.10515625 -152.55078125 266.78515625 C-141.79790613 273.01763599 -131.25523716 278.56409536 -119.55078125 282.78515625 C-118.08318359 283.35169922 -118.08318359 283.35169922 -116.5859375 283.9296875 C-101.96584225 289.28437259 -87.39984314 290.079413 -71.98828125 290.16015625 C-70.88768875 290.17193909 -70.88768875 290.17193909 -69.76486206 290.18395996 C-40.97387961 290.42340606 -15.23507236 281.10459644 9.44921875 266.78515625 C9.44921875 266.12515625 9.44921875 265.46515625 9.44921875 264.78515625 C10.18527344 264.51960938 10.92132813 264.2540625 11.6796875 263.98046875 C36.31100022 253.34974704 55.01985322 221.62234907 64.76171875 197.91015625 C77.75449951 165.10622581 77.46808886 125.48714254 64.44921875 92.78515625 C64.16981445 92.08326172 63.89041016 91.38136719 63.60253906 90.65820312 C56.27399135 72.78813989 44.9850141 57.43453869 31.44921875 43.78515625 C30.59972656 42.88667969 29.75023437 41.98820312 28.875 41.0625 C25.20479742 37.23456971 22.54892964 34.51462342 17.44921875 32.78515625 C17.44921875 32.12515625 17.44921875 31.46515625 17.44921875 30.78515625 C15.93723804 29.46351698 15.93723804 29.46351698 13.93359375 28.17578125 C12.80872559 27.41914185 12.80872559 27.41914185 11.66113281 26.6472168 C10.84870117 26.11523682 10.03626953 25.58325684 9.19921875 25.03515625 C8.36874023 24.49093018 7.53826172 23.9467041 6.68261719 23.38598633 C-24.06456258 3.47793372 -61.684879 -2.52235931 -97.55078125 3.78515625 Z " fill="#85563A" transform="translate(321.55078125,103.21484375)"/>
<path d="M0 0 C1.25852783 0.11746582 2.51705566 0.23493164 3.8137207 0.35595703 C13.08946809 1.33458806 21.57498714 2.74748971 29 8.6875 C30.28317892 12.53703676 30.06643637 15.63488135 30 19.6875 C30.61746094 19.64109375 31.23492187 19.5946875 31.87109375 19.546875 C38.41493073 19.26799001 43.41169187 20.15623781 49 23.6875 C51.4375 26.1875 51.4375 26.1875 53 28.6875 C53.35449219 29.22246094 53.70898438 29.75742187 54.07421875 30.30859375 C57.30933395 38.62161129 55.82615138 51.30454301 52.3203125 59.296875 C46.57749292 69.69511637 39.41873738 75.51936019 28.0625 78.9375 C26.96035156 79.23140625 25.85820312 79.5253125 24.72265625 79.828125 C21.88692968 80.4929206 21.88692968 80.4929206 20 82.6875 C19.5875 83.863125 19.175 85.03875 18.75 86.25 C15.62972747 94.84635083 10.10120123 102.27764702 2.04296875 106.78125 C-13.99045172 113.89358948 -37.69599911 112.35683007 -53.91796875 106.96875 C-62.87505272 103.24514602 -67.78569863 97.2270054 -72 88.6875 C-72.44085938 87.80449219 -72.88171875 86.92148437 -73.3359375 86.01171875 C-81.3458662 68.46269315 -83.38357614 48.03014293 -83.48046875 28.95239258 C-83.5002503 26.595174 -83.56271329 24.24119836 -83.625 21.88476562 C-83.63803315 20.36981192 -83.64854461 18.85483392 -83.65625 17.33984375 C-83.6809436 16.64398666 -83.70563721 15.94812958 -83.7310791 15.23118591 C-83.7060105 12.49485991 -83.52147815 10.33087051 -81.76379395 8.16233826 C-74.35251919 1.72011002 -64.90006603 0.98948063 -55.5 0 C-54.31510986 -0.1252002 -53.13021973 -0.25040039 -51.90942383 -0.37939453 C-34.48796001 -2.082497 -17.39915657 -1.65746924 0 0 Z " fill="#815337" transform="translate(222,229.3125)"/>
<path d="M0 0 C0.65725571 -0.00671722 1.31451141 -0.01343445 1.99168396 -0.02035522 C4.16388512 -0.03934964 6.33577761 -0.04325995 8.50805664 -0.04541016 C10.01876452 -0.05183668 11.52947114 -0.05856493 13.04017639 -0.06558228 C16.20682664 -0.07755832 19.37336776 -0.08126273 22.54003906 -0.08007812 C26.59675679 -0.07987482 30.65277489 -0.10718689 34.70932674 -0.14162254 C37.82946483 -0.16386464 40.94943376 -0.16791652 44.06964302 -0.16685867 C45.56517513 -0.16921832 47.06071165 -0.17806238 48.5561657 -0.19352341 C50.64861891 -0.21313236 52.73955332 -0.20736773 54.83203125 -0.1953125 C56.6171537 -0.19958755 56.6171537 -0.19958755 58.43833923 -0.20394897 C62.09963845 0.39112118 63.24182093 1.3926443 65.48071289 4.29052734 C66.45385742 6.84912109 66.45385742 6.84912109 67.11352539 9.72802734 C67.36231445 10.78892578 67.61110352 11.84982422 67.86743164 12.94287109 C68.11106445 14.04759766 68.35469727 15.15232422 68.60571289 16.29052734 C68.85708008 17.36431641 69.10844727 18.43810547 69.36743164 19.54443359 C71.96875661 30.86224013 73.84070119 41.78146243 73.85571289 53.41552734 C73.88020508 54.42228516 73.90469727 55.42904297 73.92993164 56.46630859 C73.97398668 67.81782314 69.66102606 77.9023561 61.73852539 86.09130859 C55.64441052 91.59118405 48.62548834 97.80007416 41.23583984 101.37721252 C38.554176 102.78698125 36.58402041 104.09850398 34.48071289 106.29052734 C33.16749507 110.56060194 33.29167419 114.6871986 33.38305664 119.12646484 C33.37359512 120.36095367 33.36413361 121.5954425 33.35438538 122.86734009 C33.33382519 126.80129208 33.37519909 130.73180709 33.41821289 134.66552734 C33.42015414 137.33619697 33.40802412 140.00657262 33.39672852 142.67724609 C33.37789261 149.21571401 33.4098704 155.75244918 33.48071289 162.29052734 C42.45953852 165.28628213 51.26391226 167.75316461 60.57446289 169.54443359 C63.48071289 170.29052734 63.48071289 170.29052734 65.48071289 172.29052734 C65.79321289 174.79052734 65.79321289 174.79052734 65.48071289 177.29052734 C61.87716175 179.69289477 60.23141738 179.54862378 55.94555664 179.56518555 C55.28669464 179.57029648 54.62783264 179.57540741 53.94900513 179.58067322 C51.7719819 179.59456904 49.59527519 179.59361273 47.41821289 179.59130859 C45.90510948 179.59519513 44.39200715 179.59952971 42.87890625 179.60429382 C39.7080532 179.61175569 36.53731151 179.61146473 33.36645508 179.60620117 C29.30078255 179.60040208 25.23556493 179.61734789 21.16996765 179.64054585 C18.04558645 179.65526782 14.92131525 179.65615709 11.79690552 179.65303612 C10.29777118 179.65354996 8.79863078 179.65879954 7.29953003 179.66884804 C5.20467422 179.68116795 3.11071037 179.67444903 1.01586914 179.6628418 C-0.17643311 179.66347122 -1.36873535 179.66410065 -2.59716797 179.66474915 C-5.51928711 179.29052734 -5.51928711 179.29052734 -7.42382812 177.92350769 C-8.51928711 176.29052734 -8.51928711 176.29052734 -8.58178711 173.79052734 C-7.04539079 170.17547717 -5.11169625 169.78095188 -1.51928711 168.29052734 C2.01821573 167.45296066 5.60720737 166.98605273 9.20336914 166.47412109 C9.92395508 166.36197266 10.64454102 166.24982422 11.38696289 166.13427734 C12.35085938 165.99795898 12.35085938 165.99795898 13.33422852 165.85888672 C16.27305302 165.08072664 18.80013874 163.70426787 21.48071289 162.29052734 C21.70911518 154.56812467 21.8666003 146.84659357 21.97509766 139.12158203 C22.02032855 136.49462336 22.08172537 133.86789088 22.15966797 131.24169922 C22.26899474 127.4631373 22.31991365 123.68757084 22.35961914 119.90771484 C22.42929649 118.14957962 22.42929649 118.14957962 22.50038147 116.35592651 C22.62142251 110.23178748 22.62142251 110.23178748 19.519104 105.24485779 C17.23154632 103.70752421 14.96523905 102.47554607 12.48071289 101.29052734 C0.16836846 93.01039275 -13.60310311 82.29039449 -17.51928711 67.29052734 C-17.97111992 63.28314015 -17.99408591 59.32030218 -17.95678711 55.29052734 C-17.95066406 54.15639404 -17.94454102 53.02226074 -17.93823242 51.85375977 C-17.64647013 35.67329653 -15.45450098 17.50092335 -9.51928711 2.29052734 C-5.92270682 -0.10719285 -4.27722872 0.02741802 0 0 Z " fill="#825336" transform="translate(281.519287109375,158.70947265625)"/>
<path d="M0 0 C2.79976056 0.36838955 5.55208498 0.90709351 8.31640625 1.48046875 C30.91181834 5.95914209 58.89867105 6.67639605 81.265625 0.62109375 C83.96120101 0.00881291 86.24715152 -0.19035654 89 0 C90.5928211 1.5928211 90.14628987 3.23488692 90.1484375 5.4375 C90.09397606 10.7183816 89.47344999 15.79472652 88.625 21 C88.41701782 22.31689819 88.41701782 22.31689819 88.20483398 23.66040039 C87.81336414 26.10873795 87.40962279 28.55464344 87 31 C86.75056641 32.51400391 86.75056641 32.51400391 86.49609375 34.05859375 C84.38615555 45.63474116 81.02910241 60.5356638 72.375 69.0625 C59.35010879 76.53975236 40.12001863 76.04665655 25.8125 72.6875 C18.83229273 70.66098821 13.98597355 66.9990915 10 61 C0.55439321 42.9341307 -2.11946274 21.22843139 -1 1 C-0.67 0.67 -0.34 0.34 0 0 Z " fill="#F9EDD4" transform="translate(151,255)"/>
<path d="M0 0 C1.00711533 0.09441376 1.00711533 0.09441376 2.03457642 0.19073486 C3.93048558 0.37304336 5.82468999 0.57282678 7.71875 0.7734375 C8.81123047 0.88864746 9.90371094 1.00385742 11.02929688 1.12255859 C11.84462891 1.28836426 12.65996094 1.45416992 13.5 1.625 C13.995 2.615 13.995 2.615 14.5 3.625 C13.84 3.625 13.18 3.625 12.5 3.625 C12.17 5.275 11.84 6.925 11.5 8.625 C10.84 8.625 10.18 8.625 9.5 8.625 C10.07584432 11.01064077 10.72227595 13.29182784 11.5 15.625 C-12.93040131 22.11432535 -38.62910087 20.01057604 -63.5 17.625 C-64.16 20.595 -64.82 23.565 -65.5 26.625 C-67.48 26.625 -69.46 26.625 -71.5 26.625 C-72.25222847 46.32224188 -69.62062088 65.67666633 -61.68359375 83.80078125 C-60.46739735 86.70279445 -59.48196845 89.63695008 -58.5 92.625 C-58.005 93.615 -58.005 93.615 -57.5 94.625 C-58.82 94.295 -60.14 93.965 -61.5 93.625 C-61.5 94.945 -61.5 96.265 -61.5 97.625 C-63.975 98.12 -63.975 98.12 -66.5 98.625 C-79.99496961 77.66374136 -83.85544995 53.50557405 -83.98046875 28.88989258 C-84.0002503 26.532674 -84.06271329 24.17869836 -84.125 21.82226562 C-84.13803315 20.30731192 -84.14854461 18.79233392 -84.15625 17.27734375 C-84.1809436 16.58148666 -84.20563721 15.88562958 -84.2310791 15.16868591 C-84.2060105 12.43235991 -84.02147815 10.26837051 -82.26379395 8.09983826 C-74.85251919 1.65761002 -65.40006603 0.92698063 -56 -0.0625 C-54.81510986 -0.1877002 -53.63021973 -0.31290039 -52.40942383 -0.44189453 C-34.8104216 -2.16235295 -17.56514694 -1.68871003 0 0 Z " fill="#815337" transform="translate(222.5,229.375)"/>
<path d="M0 0 C7.41459942 -0.02312883 14.82919111 -0.04091785 22.24381924 -0.05181217 C25.68640348 -0.05703982 29.12896312 -0.06413531 32.5715332 -0.07543945 C36.52555043 -0.08834235 40.47955756 -0.09322918 44.43359375 -0.09765625 C46.29605995 -0.10539818 46.29605995 -0.10539818 48.19615173 -0.11329651 C49.33725906 -0.11337204 50.47836639 -0.11344757 51.65405273 -0.11352539 C52.664431 -0.115746 53.67480927 -0.11796661 54.71580505 -0.12025452 C57 0 57 0 58 1 C58.352753 2.82601552 58.65662656 4.66155569 58.9375 6.5 C59.5216334 10.22439945 60.17943761 13.85187275 61.125 17.5 C62 22 62 22 62 34 C39.89 34 17.78 34 -5 34 C-5 20.44554455 -5 20.44554455 -3.625 13.625 C-3.43550781 12.63693359 -3.43550781 12.63693359 -3.2421875 11.62890625 C-2.44727289 7.63048578 -1.31631243 3.85253895 0 0 Z " fill="#F8ECD3" transform="translate(281,170)"/>
<path d="M0 0 C0.66 0 1.32 0 2 0 C2 2.64 2 5.28 2 8 C2.61746094 7.95359375 3.23492187 7.9071875 3.87109375 7.859375 C10.41493073 7.58049001 15.41169187 8.46873781 21 12 C23.4375 14.5 23.4375 14.5 25 17 C25.35449219 17.53496094 25.70898438 18.06992187 26.07421875 18.62109375 C29.30933395 26.93411129 27.82615138 39.61704301 24.3203125 47.609375 C19.16319187 56.94712005 12.16629574 63.4631819 2 67 C1.01 67 0.02 67 -1 67 C-1.625 65.1875 -1.625 65.1875 -2 63 C-1.34 62.01 -0.68 61.02 0 60 C0 59.01 0 58.02 0 57 C-0.99 56.67 -1.98 56.34 -3 56 C-3.21514864 48.67726225 -2.42669146 41.78510244 -1.25 34.5625 C-1.09273437 33.47517578 -0.93546875 32.38785156 -0.7734375 31.26757812 C-0.60585937 30.23181641 -0.43828125 29.19605469 -0.265625 28.12890625 C-0.04567871 26.72233765 -0.04567871 26.72233765 0.17871094 25.28735352 C1 23 1 23 3.07910156 21.67944336 C3.71299805 21.45522705 4.34689453 21.23101074 5 21 C4.67 20.01 4.34 19.02 4 18 C3.34 17.67 2.68 17.34 2 17 C2.375 15.0625 2.375 15.0625 3 13 C3.66 12.67 4.32 12.34 5 12 C4.34 11.34 3.68 10.68 3 10 C4.65 10 6.3 10 8 10 C6.700625 9.87625 5.40125 9.7525 4.0625 9.625 C1.84765625 9.4140625 1.84765625 9.4140625 0 9 C-1.36623674 6.26752652 -1.128426 4.01801098 -1 1 C-0.67 0.67 -0.34 0.34 0 0 Z " fill="#805336" transform="translate(250,241)"/>
<path d="M0 0 C5.18371758 2.22159325 7.48601642 7.10758057 9.5625 12.0625 C11.59009957 18.22039499 11.90440738 23.65852443 10.1875 29.9375 C8.6150144 33.00423809 6.87819668 35.75764996 4.87890625 38.5625 C1.42829767 43.40769634 0.87260467 46.9424852 0.9375 52.875 C0.92976562 53.57818359 0.92203125 54.28136719 0.9140625 55.00585938 C0.92954663 59.13625122 1.5005305 62.19163073 3.1875 65.9375 C3.3125 69.25 3.3125 69.25 3.1875 71.9375 C0.7125 72.4325 0.7125 72.4325 -1.8125 72.9375 C-9.6263036 64.60277616 -12.64620994 58.40137773 -12.33203125 46.6953125 C-11.41432177 40.05744396 -8.19334473 35.19193634 -4.30078125 29.87109375 C-0.41600892 24.36117311 0.17237393 19.61617631 -0.8125 12.9375 C-2.22873241 9.68691676 -2.22873241 9.68691676 -3.8125 6.9375 C-4 3.5625 -4 3.5625 -3.8125 0.9375 C-1.8125 -0.0625 -1.8125 -0.0625 0 0 Z " fill="#825439" transform="translate(207.8125,148.0625)"/>
<path d="M0 0 C2.359375 -0.14453125 2.359375 -0.14453125 5 0 C9.62471528 4.75317959 10.55789126 9.20329482 10.56640625 15.640625 C9.84088561 19.94371294 8.08947862 23.14700034 6 26.9375 C2.34064331 33.67913045 0.25667614 39.21021111 2 47 C3.15896995 49.77078247 4.43109852 52.28633906 6.00390625 54.84375 C7 57 7 57 6.65234375 59.28125 C6 61 6 61 4.375 61.8125 C2 62 2 62 -1 59.9375 C-6.07551552 55.31057802 -9.51766839 49.71488098 -10.40625 42.87109375 C-10.67440994 33.04973583 -8.33143902 26.19527035 -2.7109375 18.15625 C1.12299419 12.52947255 0.35251099 6.51166131 0 0 Z " fill="#815337" transform="translate(181,159)"/>
<path d="M0 0 C3.20769462 0.02360567 6.41455472 0.02054108 9.62231445 0.01391602 C34.51221403 0.04308396 34.51221403 0.04308396 41.28051758 2.33618164 C42.63183594 4.41308594 42.63183594 4.41308594 43.28051758 6.33618164 C18.86802526 12.82074991 -10.30971812 12.93791335 -34.71948242 6.33618164 C-34.38948242 5.34618164 -34.05948242 4.35618164 -33.71948242 3.33618164 C-23.49713954 -1.23124816 -10.90860033 -0.08577646 0 0 Z " fill="#F6E9D0" transform="translate(190.719482421875,238.663818359375)"/>
<path d="M0 0 C2.69990662 1.79993774 4.5418865 3.083773 6 6 C6.72538081 13.9791889 4.65876473 21.91872638 -0.25 28.375 C-4.16657755 32.1135513 -8.39833034 36 -14 36 C-14.21436866 28.69615358 -13.42852961 21.82810264 -12.25 14.625 C-12.09273437 13.54605469 -11.93546875 12.46710938 -11.7734375 11.35546875 C-11.60585937 10.32292969 -11.43828125 9.29039062 -11.265625 8.2265625 C-11.11899414 7.29408691 -10.97236328 6.36161133 -10.82128906 5.40087891 C-9.03245274 0.1715637 -5.11576088 -0.73082298 0 0 Z " fill="#F7EAD1" transform="translate(261,261)"/>
<path d="M0 0 C0.33 0 0.66 0 1 0 C1.95503491 7.35813298 2.03757404 14.47069433 1.6875 21.875 C1.63432617 23.40253906 1.63432617 23.40253906 1.58007812 24.9609375 C1.53689453 25.940625 1.49371094 26.9203125 1.44921875 27.9296875 C1.41143311 28.80866699 1.37364746 29.68764648 1.3347168 30.59326172 C0.9849272 33.10837903 0.2625382 34.81363016 -1 37 C-1.0292814 32.52084729 -1.04689296 28.04171958 -1.0625 23.5625 C-1.07087891 22.30244141 -1.07925781 21.04238281 -1.08789062 19.74414062 C-1.10531376 13.0710797 -0.91378066 6.61231832 0 0 Z " fill="#A28470" transform="translate(89,226)"/>
<path d="M0 0 C1.22589844 0.15275391 1.22589844 0.15275391 2.4765625 0.30859375 C3.41628906 0.43427734 3.41628906 0.43427734 4.375 0.5625 C4.045 1.5525 3.715 2.5425 3.375 3.5625 C6.015 3.5625 8.655 3.5625 11.375 3.5625 C11.375 4.2225 11.375 4.8825 11.375 5.5625 C4.6468373 5.78512303 -1.16491163 5.51271536 -7.625 3.5625 C-7.295 2.5725 -6.965 1.5825 -6.625 0.5625 C-4.10446405 -0.69776798 -2.7707902 -0.35624445 0 0 Z " fill="#F4E0C7" transform="translate(163.625,241.4375)"/>
<path d="M0 0 C0.33 0.99 0.66 1.98 1 3 C2.32 3 3.64 3 5 3 C6.75 4.5 6.75 4.5 8 6 C7.38125 6.04125 6.7625 6.0825 6.125 6.125 C5.42375 6.41375 4.7225 6.7025 4 7 C2.6954344 9.99615946 2.6954344 9.99615946 2 13 C1.01 13 0.02 13 -1 13 C-1.66 12.34 -2.32 11.68 -3 11 C-2.01 7.37 -1.02 3.74 0 0 Z " fill="#885940" transform="translate(235,296)"/>
<path d="M0 0 C1.5778125 0.4021875 1.5778125 0.4021875 3.1875 0.8125 C2.8575 1.4725 2.5275 2.1325 2.1875 2.8125 C1.5275 2.8125 0.8675 2.8125 0.1875 2.8125 C0.1875 3.4725 0.1875 4.1325 0.1875 4.8125 C-1.1325 5.1425 -2.4525 5.4725 -3.8125 5.8125 C-3.8125 6.4725 -3.8125 7.1325 -3.8125 7.8125 C-5.7925 8.8025 -5.7925 8.8025 -7.8125 9.8125 C-8.625 7.625 -8.625 7.625 -8.8125 4.8125 C-6.0437443 0.83241367 -4.92861624 -0.24239096 0 0 Z " fill="#8D674E" transform="translate(354.8125,369.1875)"/>
<path d="M0 0 C0.84648337 3.13198848 1.29734145 4.94198087 0 8 C-2.60943555 10.95278233 -4.2365111 12.7455037 -8 14 C-6.58036591 8.32146365 -3.60636039 4.46825784 0 0 Z " fill="#F2E2C8" transform="translate(132,165)"/>
<path d="M0 0 C0.66 0.33 1.32 0.66 2 1 C-0.3439244 6.27710354 -2.66965806 10.15080717 -7 14 C-7.33 12.35 -7.66 10.7 -8 9 C-7.01 9.495 -7.01 9.495 -6 10 C-5.01 7.69 -4.02 5.38 -3 3 C-2.34 3 -1.68 3 -1 3 C-0.67 2.01 -0.34 1.02 0 0 Z " fill="#F3E1C6" transform="translate(264,278)"/>
<path d="M0 0 C4.95 0 9.9 0 15 0 C14.67 0.99 14.34 1.98 14 3 C12.948125 2.979375 11.89625 2.95875 10.8125 2.9375 C7.14519217 2.88320335 7.14519217 2.88320335 4.1875 3.5625 C2 4 2 4 0 3 C0 2.01 0 1.02 0 0 Z " fill="#A88775" transform="translate(243,87)"/>
<path d="M0 0 C0.66 0.33 1.32 0.66 2 1 C-0.32489451 6.62869198 -0.32489451 6.62869198 -3.5 8.375 C-6 9 -6 9 -9 9 C-9 8.34 -9 7.68 -9 7 C-7.03125 5.2734375 -7.03125 5.2734375 -4.5 3.375 C-3.6646875 2.74335937 -2.829375 2.11171875 -1.96875 1.4609375 C-1.3190625 0.97882813 -0.669375 0.49671875 0 0 Z " fill="#98715A" transform="translate(156,116)"/>
<path d="M0 0 C1.32 0.33 2.64 0.66 4 1 C4.66 3.31 5.32 5.62 6 8 C4.35153231 7.55123384 2.70626545 7.09069512 1.0625 6.625 C0.14597656 6.36976563 -0.77054688 6.11453125 -1.71484375 5.8515625 C-4 5 -4 5 -5 3 C-3.68 3 -2.36 3 -1 3 C-0.67 2.01 -0.34 1.02 0 0 Z " fill="#99745D" transform="translate(188,393)"/>
<path d="M0 0 C0.33 0.66 0.66 1.32 1 2 C-2.62377284 6.04190048 -6.32720955 8.82568758 -11.875 9.1875 C-12.57625 9.125625 -13.2775 9.06375 -14 9 C-11.67318648 6.67318648 -9.34251501 5.47901383 -6.4375 3.9375 C-3.00362105 2.27421968 -3.00362105 2.27421968 0 0 Z " fill="#F4E1C8" transform="translate(266,299)"/>
<path d="M0 0 C0.66 0 1.32 0 2 0 C2 2.64 2 5.28 2 8 C5.3 8 8.6 8 12 8 C12 8.33 12 8.66 12 9 C8.04 9 4.08 9 0 9 C-1.36623674 6.26752652 -1.128426 4.01801098 -1 1 C-0.67 0.67 -0.34 0.34 0 0 Z " fill="#936F55" transform="translate(250,241)"/>
<path d="M0 0 C-0.33 0.99 -0.66 1.98 -1 3 C-5.29 3.66 -9.58 4.32 -14 5 C-13 3 -13 3 -11.07421875 2.1484375 C-10.28660156 1.89320312 -9.49898437 1.63796875 -8.6875 1.375 C-7.90761719 1.11460938 -7.12773437 0.85421875 -6.32421875 0.5859375 C-4 0 -4 0 0 0 Z " fill="#957560" transform="translate(198,97)"/>
<path d="M0 0 C4.3177458 0.50797009 8.03302114 1.19682779 12 3 C11.34 3.66 10.68 4.32 10 5 C7.8359375 4.9765625 7.8359375 4.9765625 5.375 4.625 C4.55773437 4.51414062 3.74046875 4.40328125 2.8984375 4.2890625 C2.27195312 4.19367188 1.64546875 4.09828125 1 4 C0.67 2.68 0.34 1.36 0 0 Z " fill="#93705D" transform="translate(304,97)"/>
<path d="M0 0 C0.33 1.32 0.66 2.64 1 4 C1.66 4 2.32 4 3 4 C2.67 4.66 2.34 5.32 2 6 C1.34 5.67 0.68 5.34 0 5 C0.391875 5.53625 0.78375 6.0725 1.1875 6.625 C2 9 2 9 0.625 12.25 C0.08875 13.1575 -0.4475 14.065 -1 15 C-1.33 15 -1.66 15 -2 15 C-1.85816304 13.24967156 -1.71136571 11.49974466 -1.5625 9.75 C-1.48128906 8.77546875 -1.40007812 7.8009375 -1.31640625 6.796875 C-1.04925416 4.43538247 -0.64628032 2.28098935 0 0 Z " fill="#9E7F67" transform="translate(92,211)"/>
<path d="M0 0 C0.86625 0.556875 0.86625 0.556875 1.75 1.125 C-0.25 3.125 -0.25 3.125 -3.25 5.125 C-4.24 5.125 -5.23 5.125 -6.25 5.125 C-6.25 3.805 -6.25 2.485 -6.25 1.125 C-2.80384615 -1.09038462 -2.80384615 -1.09038462 0 0 Z " fill="#94715E" transform="translate(166.25,111.875)"/>
<path d="M0 0 C1.37473375 4.27694946 0.38688443 6.83934671 -1 11 C-1.66 11 -2.32 11 -3 11 C-3.32613618 6.32538149 -2.70582788 3.83325617 0 0 Z " fill="#7B4E32" transform="translate(93,221)"/>
<path d="M0 0 C0.99 0 1.98 0 3 0 C3.12375 0.639375 3.2475 1.27875 3.375 1.9375 C3.684375 2.9584375 3.684375 2.9584375 4 4 C4.66 4.33 5.32 4.66 6 5 C6 5.99 6 6.98 6 8 C3.50638429 6.79618552 1.31856917 5.54571278 -1 4 C-0.67 2.68 -0.34 1.36 0 0 Z " fill="#7E4E30" transform="translate(387,167)"/>
<path d="M0 0 C1 3 1 3 0.375 5.5625 C-1.33177722 8.58815053 -2.73058318 9.05358987 -6 10 C-4.6302836 6.00499382 -2.74277578 3.19990508 0 0 Z " fill="#A98E7B" transform="translate(119,153)"/>
<path d="M0 0 C-0.33 2.31 -0.66 4.62 -1 7 C-1.66 7 -2.32 7 -3 7 C-4.38232443 5.37373596 -5.71937515 3.7074998 -7 2 C-4.35261084 0.5393715 -3.10551666 0 0 0 Z " fill="#8E6750" transform="translate(184,102)"/>
<path d="M0 0 C0 2.64 0 5.28 0 8 C-1.32 7.67 -2.64 7.34 -4 7 C-4 5.02 -4 3.04 -4 1 C-2 0 -2 0 0 0 Z " fill="#926852" transform="translate(164,378)"/>
<path d="M0 0 C0.66 1.32 1.32 2.64 2 4 C0.35 4.33 -1.3 4.66 -3 5 C-3.99 3.68 -4.98 2.36 -6 1 C-4.02 0.67 -2.04 0.34 0 0 Z " fill="#7E593F" transform="translate(209,216)"/>
<path d="M0 0 C1.98 0.99 3.96 1.98 6 3 C5.67 4.32 5.34 5.64 5 7 C4.67 6.34 4.34 5.68 4 5 C3.01 5.33 2.02 5.66 1 6 C0.01 5.34 -0.98 4.68 -2 4 C-1.34 3.34 -0.68 2.68 0 2 C0 1.34 0 0.68 0 0 Z " fill="#7C4D30" transform="translate(205,212)"/>
<path d="M0 0 C0.66 0.33 1.32 0.66 2 1 C-0.18517099 3.40575607 -2.25919671 4.79535581 -5.1875 6.1875 C-5.90292969 6.53167969 -6.61835938 6.87585938 -7.35546875 7.23046875 C-7.89816406 7.48441406 -8.44085938 7.73835938 -9 8 C-9.66 7.34 -10.32 6.68 -11 6 C-9.21385682 4.96953278 -7.42089982 3.95086764 -5.625 2.9375 C-4.62726563 2.36902344 -3.62953125 1.80054687 -2.6015625 1.21484375 C-1.74304688 0.81394531 -0.88453125 0.41304688 0 0 Z " fill="#EEDAC0" transform="translate(184,120)"/>
<path d="M0 0 C0.99 0.33 1.98 0.66 3 1 C2.45773019 4.79588866 0.79872437 6.47211993 -2 9 C-2 7.68 -2 6.36 -2 5 C-1.34 5 -0.68 5 0 5 C-0.2784375 4.0409375 -0.2784375 4.0409375 -0.5625 3.0625 C-0.7790625 2.0415625 -0.7790625 2.0415625 -1 1 C-0.67 0.67 -0.34 0.34 0 0 Z " fill="#8F6B55" transform="translate(374,347)"/>
<path d="M0 0 C0.33 0 0.66 0 1 0 C1.66 2.97 2.32 5.94 3 9 C2.01 9 1.02 9 0 9 C-0.87890625 2.84765625 -0.87890625 2.84765625 -1 1 C-0.67 0.67 -0.34 0.34 0 0 Z " fill="#F6E2C8" transform="translate(203,150)"/>
<path d="M0 0 C0.66 0.33 1.32 0.66 2 1 C0.3125 4 0.3125 4 -2 7 C-4.75 7.375 -4.75 7.375 -7 7 C-6.67 6.34 -6.34 5.68 -6 5 C-5.34 5 -4.68 5 -4 5 C-4 4.34 -4 3.68 -4 3 C-2 1.375 -2 1.375 0 0 Z " fill="#A68573" transform="translate(145,125)"/>
<path d="M0 0 C3.99500618 1.3697164 6.80009492 3.25722422 10 6 C6.6875 5.8125 6.6875 5.8125 3 5 C1.0625 2.4375 1.0625 2.4375 0 0 Z " fill="#AD9182" transform="translate(330,108)"/>
<path d="M0 0 C1 3 1 3 0 6 C-1.98 6 -3.96 6 -6 6 C-4 4 -2 2 0 0 Z " fill="#F3E4CA" transform="translate(338,248)"/>
<path d="M0 0 C1.65 0 3.3 0 5 0 C3.68 2.31 2.36 4.62 1 7 C0.31292445 4.50935112 0 2.62113708 0 0 Z " fill="#825B40" transform="translate(347,231)"/>
<path d="M0 0 C0.33 0 0.66 0 1 0 C1 2.64 1 5.28 1 8 C0.34 8 -0.32 8 -1 8 C-1.625 5.125 -1.625 5.125 -2 2 C-1.34 1.34 -0.68 0.68 0 0 Z " fill="#826044" transform="translate(275,329)"/>
<path d="M0 0 C1.98 0.99 1.98 0.99 4 2 C3.01 4.31 2.02 6.62 1 9 C0.67 9 0.34 9 0 9 C0 6.03 0 3.06 0 0 Z " fill="#A08271" transform="translate(395,314)"/>
<path d="M0 0 C1.9375 0.3125 1.9375 0.3125 4 1 C4.33 1.99 4.66 2.98 5 4 C3.35 4.33 1.7 4.66 0 5 C-0.33 4.01 -0.66 3.02 -1 2 C-0.67 1.34 -0.34 0.68 0 0 Z " fill="#F5E5C8" transform="translate(229,241)"/>
<path d="M0 0 C0.99 0.33 1.98 0.66 3 1 C1.02 3.97 1.02 3.97 -1 7 C-1.66 6.67 -2.32 6.34 -3 6 C-2.01 4.02 -1.02 2.04 0 0 Z " fill="#8B6551" transform="translate(122,149)"/>
<path d="M0 0 C0.86625 0.3403125 0.86625 0.3403125 1.75 0.6875 C0.1 2.0075 -1.55 3.3275 -3.25 4.6875 C-4.24 4.0275 -5.23 3.3675 -6.25 2.6875 C-2.80384615 -0.38942308 -2.80384615 -0.38942308 0 0 Z " fill="#825D41" transform="translate(156.25,137.3125)"/>
<path d="M0 0 C0.99 0 1.98 0 3 0 C2.67 2.97 2.34 5.94 2 9 C0 7 0 7 -0.125 3.375 C-0.08375 2.26125 -0.0425 1.1475 0 0 Z " fill="#AE8B7B" transform="translate(408,273)"/>
<path d="M0 0 C2.9375 0.375 2.9375 0.375 6 1 C6.33 1.66 6.66 2.32 7 3 C6.01 3.33 5.02 3.66 4 4 C4 3.34 4 2.68 4 2 C3.34 2 2.68 2 2 2 C2 2.66 2 3.32 2 4 C1.34 4 0.68 4 0 4 C0 2.68 0 1.36 0 0 Z " fill="#947059" transform="translate(337,114)"/>
<path d="M0 0 C2.97 0 5.94 0 9 0 C9 0.66 9 1.32 9 2 C9.66 2.33 10.32 2.66 11 3 C6.72213252 2.50639991 3.90432869 1.95216435 0 0 Z " fill="#8B6B4F" transform="translate(283,108)"/>
<path d="M0 0 C0.99 0 1.98 0 3 0 C3.33 0.99 3.66 1.98 4 3 C4.66 3.66 5.32 4.32 6 5 C5.67 5.66 5.34 6.32 5 7 C4.34 7 3.68 7 3 7 C3 6.34 3 5.68 3 5 C2.01 4.67 1.02 4.34 0 4 C0.66 3.67 1.32 3.34 2 3 C2 2.34 2 1.68 2 1 C1.34 0.67 0.68 0.34 0 0 Z " fill="#9E7664" transform="translate(146,370)"/>
<path d="M0 0 C0.66 0 1.32 0 2 0 C2.33 0.99 2.66 1.98 3 3 C1.68 4.32 0.36 5.64 -1 7 C-1.33 6.01 -1.66 5.02 -2 4 C-1.01 4 -0.02 4 1 4 C0.34 3.67 -0.32 3.34 -1 3 C-0.67 2.01 -0.34 1.02 0 0 Z " fill="#9B7966" transform="translate(381,339)"/>
<path d="M0 0 C0 0.99 0 1.98 0 3 C0.33 3.99 0.66 4.98 1 6 C-0.65 5.67 -2.3 5.34 -4 5 C-2.25 1.125 -2.25 1.125 0 0 Z " fill="#804F32" transform="translate(381,337)"/>
<path d="M0 0 C3 1 3 1 4.6875 4.0625 C5.120625 5.031875 5.55375 6.00125 6 7 C5.34 7.66 4.68 8.32 4 9 C3.3309224 7.68872739 2.66480194 6.3759455 2 5.0625 C1.62875 4.33160156 1.2575 3.60070312 0.875 2.84765625 C0 1 0 1 0 0 Z " fill="#A28671" transform="translate(107,325)"/>
<path d="M0 0 C1.98 0.99 1.98 0.99 4 2 C4 3.65 4 5.3 4 7 C2 5.1875 2 5.1875 0 3 C0 2.01 0 1.02 0 0 Z " fill="#815940" transform="translate(153,321)"/>
<path d="M0 0 C2 3 2 3 2 5 C0.68 5 -0.64 5 -2 5 C-2.33 5.66 -2.66 6.32 -3 7 C-3 5.68 -3 4.36 -3 3 C-2.34 3 -1.68 3 -1 3 C-0.67 2.01 -0.34 1.02 0 0 Z " fill="#875A40" transform="translate(269,272)"/>
<path d="M0 0 C0.99 0.99 1.98 1.98 3 3 C1.35 4.65 -0.3 6.3 -2 8 C-1.125 2.25 -1.125 2.25 0 0 Z " fill="#F0DFC6" transform="translate(210,189)"/>
<path d="M0 0 C0.99 0.99 1.98 1.98 3 3 C2.01 3.99 1.02 4.98 0 6 C-0.99 5.67 -1.98 5.34 -3 5 C-2.01 3.35 -1.02 1.7 0 0 Z " fill="#865A42" transform="translate(202,180)"/>
<path d="M0 0 C4 4.625 4 4.625 4 8 C3.01 7.34 2.02 6.68 1 6 C1 5.01 1 4.02 1 3 C0.34 3 -0.32 3 -1 3 C-0.67 2.01 -0.34 1.02 0 0 Z " fill="#AC9184" transform="translate(384,157)"/>
</svg>
