<?xml version="1.0" encoding="UTF-8"?>
<svg version="1.1" xmlns="http://www.w3.org/2000/svg" width="500" height="500">
<path d="M0 0 C1.22589844 0.64582031 1.22589844 0.64582031 2.4765625 1.3046875 C7.20953028 3.80025233 11.64155362 6.68285196 16.0625 9.6875 C16.94059326 10.27712524 16.94059326 10.27712524 17.83642578 10.87866211 C19.26244769 11.86615356 20.63674661 12.92751781 22 14 C22 14.66 22 15.32 22 16 C22.86625 16.4021875 22.86625 16.4021875 23.75 16.8125 C26.05550043 18.02929189 28.02056192 19.30333879 30 21 C30 21.66 30 22.32 30 23 C30.5775 23.2475 31.155 23.495 31.75 23.75 C34.32939979 25.18299988 36.06121592 26.78424676 38 29 C38 29.66 38 30.32 38 31 C38.66 31 39.32 31 40 31 C45 36.47619048 45 36.47619048 45 39 C45.66 39 46.32 39 47 39 C48.30932617 40.52197266 48.30932617 40.52197266 49.79296875 42.6640625 C50.33751709 43.44934326 50.88206543 44.23462402 51.44311523 45.04370117 C52.01876221 45.89552979 52.59440918 46.7473584 53.1875 47.625 C53.77539307 48.49294189 54.36328613 49.36088379 54.96899414 50.25512695 C79.3504013 86.81543643 84.4060874 131.17888568 76.12109375 173.640625 C74.10765561 183.23072305 70.87504149 192.00990375 67 201 C66.32796543 202.66450946 65.6590841 204.33032028 65 206 C64.34 206 63.68 206 63 206 C62.89816406 206.70511719 62.79632813 207.41023437 62.69140625 208.13671875 C61.90085188 211.41059645 60.59476266 213.88584467 58.9375 216.8125 C58.38964844 217.78832031 57.84179688 218.76414062 57.27734375 219.76953125 C56.64505859 220.87361328 56.64505859 220.87361328 56 222 C55.34 222 54.68 222 54 222 C53.855625 222.61875 53.71125 223.2375 53.5625 223.875 C53 226 53 226 52 228 C51.34 228 50.68 228 50 228 C49.731875 228.7425 49.46375 229.485 49.1875 230.25 C48.04723249 232.89061949 46.90619694 234.85552844 45 237 C44.34 237 43.68 237 43 237 C42.5978125 237.86625 42.5978125 237.86625 42.1875 238.75 C40.97070811 241.05550043 39.69666121 243.02056192 38 245 C37.34 245 36.68 245 36 245 C36 245.66 36 246.32 36 247 C35.34 247 34.68 247 34 247 C34 247.66 34 248.32 34 249 C33.34 249 32.68 249 32 249 C32 249.66 32 250.32 32 251 C31.34 251 30.68 251 30 251 C30 251.66 30 252.32 30 253 C24.52380952 258 24.52380952 258 22 258 C22 258.66 22 259.32 22 260 C20.32617187 261.38525391 20.32617187 261.38525391 17.96875 262.9765625 C16.66925415 263.85417236 16.66925415 263.85417236 15.34350586 264.74951172 C14.40514893 265.36842285 13.46679199 265.98733398 12.5 266.625 C11.5519751 267.25293457 10.6039502 267.88086914 9.62719727 268.52783203 C3.87546406 272.27852096 -1.92472307 275.79300907 -8.0625 278.875 C-8.70960938 279.20193848 -9.35671875 279.52887695 -10.0234375 279.86572266 C-13.34236348 281.46033511 -15.23029265 282 -19 282 C-19 282.66 -19 283.32 -19 284 C-21.78672093 284.95465274 -24.57817837 285.88823785 -27.375 286.8125 C-28.50808594 287.20405273 -28.50808594 287.20405273 -29.6640625 287.60351562 C-43.93262797 292.26381322 -58.47788364 293.50341589 -73.40405273 293.39111328 C-75.93332987 293.37502652 -78.46100485 293.3910788 -80.99023438 293.41015625 C-95.68334339 293.43032823 -110.6846855 292.22625921 -124.5625 287.0625 C-125.30733643 286.79872559 -126.05217285 286.53495117 -126.81958008 286.26318359 C-128.88613632 285.52504717 -130.94326451 284.76495938 -133 284 C-133.93070312 283.67128906 -134.86140625 283.34257812 -135.8203125 283.00390625 C-147.15895121 278.79401564 -159.40902736 272.37767126 -169 265 C-169 264.34 -169 263.68 -169 263 C-169.7425 262.731875 -170.485 262.46375 -171.25 262.1875 C-173.89061949 261.04723249 -175.85552844 259.90619694 -178 258 C-178 257.34 -178 256.68 -178 256 C-178.66 256 -179.32 256 -180 256 C-180 255.34 -180 254.68 -180 254 C-180.56203125 253.7628125 -181.1240625 253.525625 -181.703125 253.28125 C-184.51894042 251.71052303 -186.47955416 249.78528536 -188.75 247.5 C-189.54921875 246.7059375 -190.3484375 245.911875 -191.171875 245.09375 C-193 243 -193 243 -193 241 C-193.66 241 -194.32 241 -195 241 C-195 240.34 -195 239.68 -195 239 C-195.66 239 -196.32 239 -197 239 C-198.80112848 236.80771735 -200.47497737 234.6151685 -202.125 232.3125 C-202.61709961 231.63058594 -203.10919922 230.94867188 -203.61621094 230.24609375 C-216.32973114 212.44551113 -225.70310437 193.55378292 -230 172 C-230.13825195 171.36755371 -230.27650391 170.73510742 -230.41894531 170.08349609 C-237.21080516 138.53891002 -234.7037063 101.005672 -220 72 C-219.41691428 70.76934294 -218.83636837 69.53748061 -218.2578125 68.3046875 C-214.81455392 61.06899482 -211.04599931 54.1888989 -206.625 47.5 C-206.19614502 46.84676758 -205.76729004 46.19353516 -205.32543945 45.52050781 C-204.274336 43.97310238 -203.14403826 42.48001976 -202 41 C-201.34 41 -200.68 41 -200 41 C-199.690625 40.38125 -199.38125 39.7625 -199.0625 39.125 C-198.375 37.75 -197.6875 36.375 -197 35 C-196.34 35 -195.68 35 -195 35 C-194.7834375 34.45859375 -194.566875 33.9171875 -194.34375 33.359375 C-192.53500003 30.18354656 -190.08276201 27.79271919 -187.5 25.25 C-187.00113281 24.74339844 -186.50226563 24.23679688 -185.98828125 23.71484375 C-182.25341139 20 -182.25341139 20 -180 20 C-180 19.34 -180 18.68 -180 18 C-179.34 18 -178.68 18 -178 18 C-178 17.34 -178 16.68 -178 16 C-176.5390625 14.7109375 -176.5390625 14.7109375 -174.625 13.375 C-173.99851563 12.92898437 -173.37203125 12.48296875 -172.7265625 12.0234375 C-171 11 -171 11 -169 11 C-169 10.34 -169 9.68 -169 9 C-166.57216081 7.2981028 -164.15417214 5.7257116 -161.625 4.1875 C-160.88983154 3.73608643 -160.15466309 3.28467285 -159.3972168 2.81958008 C-145.81748661 -5.43810177 -131.45713833 -11.23202443 -116 -15 C-115.2682959 -15.18481934 -114.5365918 -15.36963867 -113.78271484 -15.56005859 C-75.60851025 -24.86910993 -34.04025766 -19.32451682 0 0 Z " fill="#F7EFD8" transform="translate(327,112)"/>
<path d="M0 0 C1 1 1 1 1.375 4.0625 C1.00254467 7.97328091 0.62634576 8.89814702 -1.5 11.9375 C-3.82614416 15.38683949 -4.77732965 17.82930247 -4.484375 22.00390625 C-3.54678877 25.86766886 -1.30578018 28.82127432 1 32 C7.82040978 41.76836184 12.65055262 49.66091728 11 62 C9.94512871 65.49100903 8.55529782 68.70826526 7 72 C6.505 73.485 6.505 73.485 6 75 C8.0804243 77.0804243 12.01960554 77.00810813 14.875 77.5 C16.04301147 77.70508179 16.04301147 77.70508179 17.23461914 77.91430664 C21.30402446 78.60906258 25.31382279 79.17291351 29.4375 79.4375 C42.46457909 80.47013432 58.40882153 83.10922251 67.75 92.875 C69.35567893 96.88919731 69.29632131 99.70334096 69 104 C69.99 103.67 70.98 103.34 72 103 C80.13273531 102.1741824 86.58131405 102.08502969 93.1640625 107.28515625 C97.84931973 111.66138588 101.52060051 115.94689522 102.30078125 122.54296875 C102.35793688 135.44109007 98.15577448 144.69755757 89.375 154.0625 C80.95430503 162.09824891 70.29944806 169.38589503 58.41015625 170.265625 C54.88469013 170.67367811 54.88469013 170.67367811 52.953125 173.30078125 C52.39109375 174.29464844 51.8290625 175.28851563 51.25 176.3125 C40.81195513 193.16934258 26.05635892 205.19091871 7 211 C-3.62311737 213.00944781 -16.67103023 213.53504848 -27 210 C-28.00160156 209.67 -29.00320312 209.34 -30.03515625 209 C-50.20518978 201.82843252 -65.8188516 186.81994321 -75.1875 167.63671875 C-84.03287508 148.72218116 -88.03021237 130.02723713 -88.125 109.1875 C-88.12967285 108.48222168 -88.1343457 107.77694336 -88.13916016 107.05029297 C-88.10392403 95.56060689 -88.10392403 95.56060689 -85.6875 92.14453125 C-68.24845794 78.37899111 -44.17903755 79.03067126 -23 78 C-23.99 77.505 -23.99 77.505 -25 77 C-26.97626336 72.93768087 -26.98769712 69.64739671 -26.75 65.25 C-26.60911837 59.29589754 -28.23436452 55.88953193 -31.58984375 51.05859375 C-34.90761796 46.21519483 -34.46210106 40.64423433 -34 35 C-32.71284144 31.7821036 -32.07023117 30.53511558 -29 29 C-27 29 -27 29 -25.44921875 30.14453125 C-23.53499607 32.59535543 -23.28006965 34.6303138 -22.8125 37.6875 C-22.65394531 38.68136719 -22.49539062 39.67523438 -22.33203125 40.69921875 C-22.22246094 41.45847656 -22.11289063 42.21773437 -22 43 C-19.69 42.34 -17.38 41.68 -15 41 C-14.94527912 39.60461746 -14.90688462 38.20859103 -14.875 36.8125 C-14.85179687 36.03519531 -14.82859375 35.25789063 -14.8046875 34.45703125 C-15.02800737 31.64766728 -15.95439759 29.60596293 -17 27 C-18.08030069 18.59626559 -16.5447408 12.65699365 -11.46875 5.98828125 C-7.80826925 1.56520034 -5.97339695 -0.30632805 0 0 Z " fill="#855235" transform="translate(256,130)"/>
<path d="M0 0 C1.22589844 0.64582031 1.22589844 0.64582031 2.4765625 1.3046875 C7.20953028 3.80025233 11.64155362 6.68285196 16.0625 9.6875 C16.94059326 10.27712524 16.94059326 10.27712524 17.83642578 10.87866211 C19.26244769 11.86615356 20.63674661 12.92751781 22 14 C22 14.66 22 15.32 22 16 C22.86625 16.4021875 22.86625 16.4021875 23.75 16.8125 C26.05550043 18.02929189 28.02056192 19.30333879 30 21 C30 21.66 30 22.32 30 23 C30.5775 23.2475 31.155 23.495 31.75 23.75 C34.32939979 25.18299988 36.06121592 26.78424676 38 29 C38 29.66 38 30.32 38 31 C38.66 31 39.32 31 40 31 C45 36.47619048 45 36.47619048 45 39 C45.66 39 46.32 39 47 39 C48.30932617 40.52197266 48.30932617 40.52197266 49.79296875 42.6640625 C50.33751709 43.44934326 50.88206543 44.23462402 51.44311523 45.04370117 C52.01876221 45.89552979 52.59440918 46.7473584 53.1875 47.625 C53.77539307 48.49294189 54.36328613 49.36088379 54.96899414 50.25512695 C79.3504013 86.81543643 84.4060874 131.17888568 76.12109375 173.640625 C74.10765561 183.23072305 70.87504149 192.00990375 67 201 C66.32796543 202.66450946 65.6590841 204.33032028 65 206 C64.34 206 63.68 206 63 206 C62.89816406 206.70511719 62.79632813 207.41023437 62.69140625 208.13671875 C61.90085188 211.41059645 60.59476266 213.88584467 58.9375 216.8125 C58.38964844 217.78832031 57.84179688 218.76414062 57.27734375 219.76953125 C56.64505859 220.87361328 56.64505859 220.87361328 56 222 C55.34 222 54.68 222 54 222 C53.855625 222.61875 53.71125 223.2375 53.5625 223.875 C53 226 53 226 52 228 C51.34 228 50.68 228 50 228 C49.731875 228.7425 49.46375 229.485 49.1875 230.25 C48.04723249 232.89061949 46.90619694 234.85552844 45 237 C44.34 237 43.68 237 43 237 C42.5978125 237.86625 42.5978125 237.86625 42.1875 238.75 C40.97070811 241.05550043 39.69666121 243.02056192 38 245 C37.34 245 36.68 245 36 245 C36 245.66 36 246.32 36 247 C35.34 247 34.68 247 34 247 C34 247.66 34 248.32 34 249 C33.34 249 32.68 249 32 249 C32 249.66 32 250.32 32 251 C31.34 251 30.68 251 30 251 C30 251.66 30 252.32 30 253 C24.52380952 258 24.52380952 258 22 258 C22 258.66 22 259.32 22 260 C20.32617187 261.38525391 20.32617187 261.38525391 17.96875 262.9765625 C16.66925415 263.85417236 16.66925415 263.85417236 15.34350586 264.74951172 C14.40514893 265.36842285 13.46679199 265.98733398 12.5 266.625 C11.5519751 267.25293457 10.6039502 267.88086914 9.62719727 268.52783203 C3.87546406 272.27852096 -1.92472307 275.79300907 -8.0625 278.875 C-8.70960938 279.20193848 -9.35671875 279.52887695 -10.0234375 279.86572266 C-13.34236348 281.46033511 -15.23029265 282 -19 282 C-19 282.66 -19 283.32 -19 284 C-21.78672093 284.95465274 -24.57817837 285.88823785 -27.375 286.8125 C-28.50808594 287.20405273 -28.50808594 287.20405273 -29.6640625 287.60351562 C-43.93262797 292.26381322 -58.47788364 293.50341589 -73.40405273 293.39111328 C-75.93332987 293.37502652 -78.46100485 293.3910788 -80.99023438 293.41015625 C-95.68334339 293.43032823 -110.6846855 292.22625921 -124.5625 287.0625 C-125.30733643 286.79872559 -126.05217285 286.53495117 -126.81958008 286.26318359 C-128.88613632 285.52504717 -130.94326451 284.76495938 -133 284 C-133.93070312 283.67128906 -134.86140625 283.34257812 -135.8203125 283.00390625 C-147.15895121 278.79401564 -159.40902736 272.37767126 -169 265 C-169 264.34 -169 263.68 -169 263 C-169.7425 262.731875 -170.485 262.46375 -171.25 262.1875 C-173.89061949 261.04723249 -175.85552844 259.90619694 -178 258 C-178 257.34 -178 256.68 -178 256 C-178.66 256 -179.32 256 -180 256 C-180 255.34 -180 254.68 -180 254 C-180.56203125 253.7628125 -181.1240625 253.525625 -181.703125 253.28125 C-184.51894042 251.71052303 -186.47955416 249.78528536 -188.75 247.5 C-189.54921875 246.7059375 -190.3484375 245.911875 -191.171875 245.09375 C-193 243 -193 243 -193 241 C-193.66 241 -194.32 241 -195 241 C-195 240.34 -195 239.68 -195 239 C-195.66 239 -196.32 239 -197 239 C-198.80112848 236.80771735 -200.47497737 234.6151685 -202.125 232.3125 C-202.61709961 231.63058594 -203.10919922 230.94867188 -203.61621094 230.24609375 C-216.32973114 212.44551113 -225.70310437 193.55378292 -230 172 C-230.13825195 171.36755371 -230.27650391 170.73510742 -230.41894531 170.08349609 C-237.21080516 138.53891002 -234.7037063 101.005672 -220 72 C-219.41691428 70.76934294 -218.83636837 69.53748061 -218.2578125 68.3046875 C-214.81455392 61.06899482 -211.04599931 54.1888989 -206.625 47.5 C-206.19614502 46.84676758 -205.76729004 46.19353516 -205.32543945 45.52050781 C-204.274336 43.97310238 -203.14403826 42.48001976 -202 41 C-201.34 41 -200.68 41 -200 41 C-199.690625 40.38125 -199.38125 39.7625 -199.0625 39.125 C-198.375 37.75 -197.6875 36.375 -197 35 C-196.34 35 -195.68 35 -195 35 C-194.7834375 34.45859375 -194.566875 33.9171875 -194.34375 33.359375 C-192.53500003 30.18354656 -190.08276201 27.79271919 -187.5 25.25 C-187.00113281 24.74339844 -186.50226563 24.23679688 -185.98828125 23.71484375 C-182.25341139 20 -182.25341139 20 -180 20 C-180 19.34 -180 18.68 -180 18 C-179.34 18 -178.68 18 -178 18 C-178 17.34 -178 16.68 -178 16 C-176.5390625 14.7109375 -176.5390625 14.7109375 -174.625 13.375 C-173.99851563 12.92898437 -173.37203125 12.48296875 -172.7265625 12.0234375 C-171 11 -171 11 -169 11 C-169 10.34 -169 9.68 -169 9 C-166.57216081 7.2981028 -164.15417214 5.7257116 -161.625 4.1875 C-160.88983154 3.73608643 -160.15466309 3.28467285 -159.3972168 2.81958008 C-145.81748661 -5.43810177 -131.45713833 -11.23202443 -116 -15 C-115.2682959 -15.18481934 -114.5365918 -15.36963867 -113.78271484 -15.56005859 C-75.60851025 -24.86910993 -34.04025766 -19.32451682 0 0 Z M-109 1 C-110.26328125 1.30164063 -111.5265625 1.60328125 -112.828125 1.9140625 C-136.84960545 7.89511937 -157.19476782 19.94446181 -175 37 C-175.67289063 37.62132812 -176.34578125 38.24265625 -177.0390625 38.8828125 C-183.107865 44.66147305 -188.05144788 51.2709722 -193 58 C-193.556875 58.73863281 -194.11375 59.47726563 -194.6875 60.23828125 C-204.60077341 74.11147638 -210.75080177 91.41480683 -214 108 C-214.17063965 108.83233154 -214.3412793 109.66466309 -214.51708984 110.5222168 C-216.11358029 118.98704638 -216.39607362 127.35129426 -216.375 135.9375 C-216.37545319 136.65800537 -216.37590637 137.37851074 -216.37637329 138.12084961 C-216.30112429 179.0065184 -198.83560127 212.70003335 -170.609375 241.43359375 C-144.48676398 266.35669713 -108.16320759 277.85671273 -72.60546875 277.19140625 C-65.98389563 276.97302207 -59.53056304 276.12620339 -53 275 C-51.79085937 274.80535156 -50.58171875 274.61070312 -49.3359375 274.41015625 C-22.39114946 269.61682027 3.42215385 256.24937472 22 236 C22.825 235.195625 23.65 234.39125 24.5 233.5625 C36.62568262 221.13367532 45.28746359 207.71044966 52.20410156 191.82128906 C52.86170193 190.3164735 53.54819168 188.82431847 54.2421875 187.3359375 C57.51847144 179.94525046 59.00561797 172.00840909 60.57714844 164.11572266 C60.93246594 162.33790423 61.31116787 160.56478189 61.6953125 158.79296875 C67.85505048 126.3892767 60.32332922 88.90681295 41.83203125 61.56640625 C41.22746094 60.71949219 40.62289063 59.87257812 40 59 C38.98486328 57.55947266 38.98486328 57.55947266 37.94921875 56.08984375 C33.92767694 50.55397358 29.65154053 45.31863907 25.0625 40.25 C24.58973633 39.72414307 24.11697266 39.19828613 23.62988281 38.65649414 C22.46350948 37.39588767 21.23639315 36.19200981 20 35 C19.34 35 18.68 35 18 35 C18 34.34 18 33.68 18 33 C16.55388165 31.58683941 16.55388165 31.58683941 14.6328125 30.171875 C13.91697998 29.62217041 13.20114746 29.07246582 12.46362305 28.50610352 C11.69187744 27.92658936 10.92013184 27.3470752 10.125 26.75 C9.34358643 26.15952881 8.56217285 25.56905762 7.75708008 24.96069336 C2.36349475 20.92598956 -3.04385846 17.16481448 -9 14 C-9.90492188 13.50242187 -10.80984375 13.00484375 -11.7421875 12.4921875 C-23.08985569 6.50230429 -35.45045867 2.59422043 -48 0 C-49.49660156 -0.309375 -49.49660156 -0.309375 -51.0234375 -0.625 C-69.74617298 -3.76727728 -90.59439634 -3.87207156 -109 1 Z " fill="#875539" transform="translate(327,112)"/>
<path d="M0 0 C5.02529936 0.11841431 9.72156642 0.73604627 14.63928223 1.76635742 C28.51986 4.66069908 42.12226261 4.91209243 56.25794983 4.77407837 C60.15168781 4.73726859 64.04447455 4.73306292 67.93836975 4.73355103 C82.36690499 4.69256951 96.37143914 4.35731771 110.50672913 1.23745728 C115.69613919 0.11661531 120.90353313 -0.05042826 126.19422913 0.36245728 C128.87990619 3.04813434 127.44403651 10.76810655 127.44520569 14.37588501 C127.18255101 39.19476188 119.138381 65.49247837 101.19422913 83.36245728 C86.91151762 95.72924686 72.03906812 98.30954339 53.78749084 97.55337524 C40.93179118 96.60692852 28.57982249 89.75588876 19.92079163 80.36636353 C19.351026 79.70507446 18.78126038 79.0437854 18.19422913 78.36245728 C17.6863385 77.79398071 17.17844788 77.22550415 16.65516663 76.63980103 C2.3038489 59.1803102 -3.97394743 33.75712775 -3.99327087 11.61245728 C-4.00551697 10.85835571 -4.01776306 10.10425415 -4.03038025 9.32730103 C-4.05306346 0.81353751 -4.05306346 0.81353751 0 0 Z " fill="#F8EDD7" transform="translate(184.80577087402344,229.63754272460938)"/>
<path d="M0 0 C2.79872437 2.52788007 4.45773019 4.20411134 5 8 C4.34 8 3.68 8 3 8 C2.67 7.34 2.34 6.68 2 6 C0.68 6 -0.64 6 -2 6 C-2 6.66 -2 7.32 -2 8 C-1.195625 8.20625 -0.39125 8.4125 0.4375 8.625 C1.283125 9.07875 2.12875 9.5325 3 10 C4.00960214 13.92623054 4.05081871 17.67108724 3.93457031 21.70776367 C3.17972013 48.37810561 11.9073479 75.82661248 30.23828125 95.41796875 C42.82916711 107.18964563 58.11819386 109.91628288 74.73828125 109.37890625 C86.11187557 108.73343808 94.8828213 104.66255367 104 98 C104.82113281 97.41476562 105.64226562 96.82953125 106.48828125 96.2265625 C109.63533086 93.43679846 111.82970112 90.33500743 114.1875 86.875 C118.80940594 80.19059406 118.80940594 80.19059406 121 78 C121 82.29 121 86.58 121 91 C121.66 91.33 122.32 91.66 123 92 C123.99 90.02 123.99 90.02 125 88 C125.99 88.33 126.98 88.66 128 89 C126.20150759 99.76631755 113.13713089 109.16309607 104.8125 115.1875 C100.85939494 117.71015885 96.70359568 119.54443719 92.375 121.3125 C91.75343018 121.56733154 91.13186035 121.82216309 90.49145508 122.0847168 C79.09285824 126.51339404 62.67862924 126.99696402 51 123 C49.99839844 122.67 48.99679688 122.34 47.96484375 122 C27.79481022 114.82843252 12.1811484 99.81994321 2.8125 80.63671875 C-6.03287508 61.72218116 -10.03021237 43.02723713 -10.125 22.1875 C-10.12967285 21.48222168 -10.1343457 20.77694336 -10.13916016 20.05029297 C-10.1033954 8.38823181 -10.1033954 8.38823181 -7.44140625 5.0390625 C-6.82136719 4.57242188 -6.20132813 4.10578125 -5.5625 3.625 C-4.94503906 3.14289063 -4.32757813 2.66078125 -3.69140625 2.1640625 C-2 1 -2 1 0 0 Z " fill="#855337" transform="translate(178,217)"/>
<path d="M0 0 C1 1 1 1 1.375 4.0625 C1.00254467 7.97328091 0.62634576 8.89814702 -1.5 11.9375 C-3.82614416 15.38683949 -4.77732965 17.82930247 -4.484375 22.00390625 C-3.54678877 25.86766886 -1.30578018 28.82127432 1 32 C7.82040978 41.76836184 12.65055262 49.66091728 11 62 C9.94512871 65.49100903 8.55529782 68.70826526 7 72 C6.505 73.485 6.505 73.485 6 75 C7.96822886 76.96822886 11.34808709 76.66248381 14 77 C14 77.33 14 77.66 14 78 C8.76725612 78.02467917 3.53454597 78.04285003 -1.69824219 78.05493164 C-3.47917267 78.05996711 -5.260099 78.06679581 -7.04101562 78.07543945 C-9.59766665 78.08753942 -12.15426312 78.09323609 -14.7109375 78.09765625 C-15.50994476 78.10281754 -16.30895203 78.10797882 -17.13217163 78.11329651 C-22.77225659 78.11387171 -22.77225659 78.11387171 -25 77 C-26.97626336 72.93768087 -26.98769712 69.64739671 -26.75 65.25 C-26.60911837 59.29589754 -28.23436452 55.88953193 -31.58984375 51.05859375 C-34.90761796 46.21519483 -34.46210106 40.64423433 -34 35 C-32.71284144 31.7821036 -32.07023117 30.53511558 -29 29 C-27 29 -27 29 -25.44921875 30.14453125 C-23.53499607 32.59535543 -23.28006965 34.6303138 -22.8125 37.6875 C-22.65394531 38.68136719 -22.49539062 39.67523438 -22.33203125 40.69921875 C-22.22246094 41.45847656 -22.11289063 42.21773437 -22 43 C-19.69 42.34 -17.38 41.68 -15 41 C-14.94527912 39.60461746 -14.90688462 38.20859103 -14.875 36.8125 C-14.85179687 36.03519531 -14.82859375 35.25789063 -14.8046875 34.45703125 C-15.02800737 31.64766728 -15.95439759 29.60596293 -17 27 C-18.08030069 18.59626559 -16.5447408 12.65699365 -11.46875 5.98828125 C-7.80826925 1.56520034 -5.97339695 -0.30632805 0 0 Z " fill="#F8EDD6" transform="translate(256,130)"/>
<path d="M0 0 C1.78125 1.30859375 1.78125 1.30859375 3 3 C3.125 6.5 3.125 6.5 2 10 C-2.91503172 13.16746489 -8.27750994 13.60189223 -13.984375 14.4765625 C-18.07694699 15.18693121 -22.34818918 15.95302084 -26 18 C-28.07555121 20.98931589 -28.19885368 23.42063373 -28 27 C-27.10692139 26.98428955 -27.10692139 26.98428955 -26.19580078 26.96826172 C-23.50557657 26.92676051 -20.81541963 26.90069296 -18.125 26.875 C-17.18785156 26.85824219 -16.25070313 26.84148437 -15.28515625 26.82421875 C-13.94130859 26.81455078 -13.94130859 26.81455078 -12.5703125 26.8046875 C-11.74289551 26.79421387 -10.91547852 26.78374023 -10.06298828 26.77294922 C-8 27 -8 27 -6 29 C-5.43900267 34.27337489 -5.43900267 34.27337489 -7.23046875 36.59375 C-9.32246796 38.25626593 -11.0542331 38.84839808 -13.625 39.5625 C-14.50414062 39.81 -15.38328125 40.0575 -16.2890625 40.3125 C-19.56869737 41.14422296 -22.86223548 41.84916915 -26.1875 42.47265625 C-28.23017317 42.90923109 -28.23017317 42.90923109 -30 45 C-30.06082886 47.18636725 -30.06082886 47.18636725 -29.6875 49.5625 C-29.58824219 50.36816406 -29.48898438 51.17382812 -29.38671875 52.00390625 C-29.19478523 53.99178349 -29.19478523 53.99178349 -28 55 C-20.76311147 55.72368885 -15.6715151 54.01292488 -9.015625 51.19140625 C-6.28544111 50.11277142 -3.91530319 49.31271418 -1 49 C1.375 50.5625 1.375 50.5625 3 53 C3.3125 55.875 3.3125 55.875 2 59 C-4.72420538 65.50995373 -16.08796187 70.03128875 -25.375 70.5625 C-31.04147916 69.68321875 -35.19548056 67.75574864 -39.3125 63.75 C-46.47183288 52.08293901 -44.46740156 39.01808725 -42.75 26 C-42.64091309 25.12835205 -42.53182617 24.2567041 -42.41943359 23.35864258 C-41.60824624 17.8148202 -40.33952018 12.60460573 -37 8 C-28.3261223 1.8808051 -10.37379364 -2.14031802 0 0 Z " fill="#855436" transform="translate(267,243)"/>
<path d="M0 0 C1 1 1 1 1.375 4.0625 C1.00254467 7.97328091 0.62634576 8.89814702 -1.5 11.9375 C-3.82614416 15.38683949 -4.77732965 17.82930247 -4.484375 22.00390625 C-3.54678877 25.86766886 -1.30578018 28.82127432 1 32 C7.70661942 41.60538842 12.95243996 49.80552329 11 62 C9.14345674 66.48546521 7.03868866 69.30754089 3 72 C0.8125 71.625 0.8125 71.625 -1 71 C-2.01597546 66.98839101 -1.84152674 63.66556427 -1.5 59.5625 C-1.3844332 50.40383107 -5.7417021 45.03427932 -11 38 C-16.19514508 30.5997214 -18.01659998 25.03503228 -17 16 C-15.20463737 10.13446869 -11.32788989 5.2660629 -7 1 C-4.51588385 -0.24205807 -2.74800896 -0.14092354 0 0 Z " fill="#855437" transform="translate(256,130)"/>
<path d="M0 0 C2.52157611 2.11267188 3.77135351 3.78517118 4.38671875 7.0546875 C4.73298642 13.95616044 2.58348532 18.79743064 -1.6953125 24.1015625 C-6.29168914 29.07011538 -11.50637504 32.88928354 -18 35 C-18.99 34.67 -19.98 34.34 -21 34 C-20.73445313 33.05640625 -20.46890625 32.1128125 -20.1953125 31.140625 C-19.83744421 29.84405241 -19.48075923 28.54715287 -19.125 27.25 C-18.93719971 26.57203369 -18.74939941 25.89406738 -18.5559082 25.19555664 C-17.4124285 20.94229089 -16.67858618 16.82416867 -16.1875 12.4375 C-15.56653821 8.24883049 -14.75841927 6.13400195 -11.5625 3.3125 C-7.941995 0.66163349 -4.51264548 -0.66038714 0 0 Z " fill="#F7ECD5" transform="translate(339,248)"/>
<path d="M0 0 C2.8992226 0.46761655 3.86675182 0.86675182 6 3 C6.30970511 4.67756937 6.54984895 6.36836429 6.75 8.0625 C7.61216032 13.39667889 9.43761848 16.8387884 12.66015625 21.125 C15.8304852 25.56161194 15.47858071 30.77616989 15 36 C12.97058824 41.02941176 12.97058824 41.02941176 11 43 C8.5 43.125 8.5 43.125 6 43 C4.3014742 41.3014742 4.58790024 38.88711492 4.3125 36.5625 C3.42275616 30.8270743 1.55507291 26.84606211 -1.66015625 22.05859375 C-4.84802023 17.16062199 -4.48649592 11.64005444 -4 6 C-2.82755696 3.45121078 -1.93702622 1.93702622 0 0 Z " fill="#845337" transform="translate(226,159)"/>
<path d="M0 0 C0 3 0 3 -0.5625 5.125 C-0.706875 5.74375 -0.85125 6.3625 -1 7 C0.96822886 8.96822886 4.34808709 8.66248381 7 9 C7 9.33 7 9.66 7 10 C-3.23 10 -13.46 10 -24 10 C-24 9.67 -24 9.34 -24 9 C-19.05 8.67 -14.1 8.34 -9 8 C-9.33 7.34 -9.66 6.68 -10 6 C-9.34 6 -8.68 6 -8 6 C-8 5.34 -8 4.68 -8 4 C-6.865625 3.525625 -5.73125 3.05125 -4.5625 2.5625 C-1.24259834 1.36377917 -1.24259834 1.36377917 0 0 Z " fill="#F3E1C9" transform="translate(263,198)"/>
<path d="M0 0 C0.33 0 0.66 0 1 0 C1.33 1.98 1.66 3.96 2 6 C2.99 6 3.98 6 5 6 C5.33 5.01 5.66 4.02 6 3 C6.99 3.33 7.98 3.66 9 4 C11.63804589 3.60602665 11.63804589 3.60602665 14 3 C10.68048822 8.28104147 5.78113105 10.97322618 0 13 C-0.99 12.67 -1.98 12.34 -3 12 C-2.01 8.04 -1.02 4.08 0 0 Z " fill="#F4E6CE" transform="translate(321,270)"/>
<path d="M0 0 C-1.54545146 5.47932789 -4.15543212 10.11429181 -7 15 C-7.33 15 -7.66 15 -8 15 C-8 13.35 -8 11.7 -8 10 C-7.01 9.67 -6.02 9.34 -5 9 C-5.7425 8.071875 -5.7425 8.071875 -6.5 7.125 C-8 5 -8 5 -8 3 C-2.25 0 -2.25 0 0 0 Z " fill="#F4ECD2" transform="translate(378,305)"/>
<path d="M0 0 C0 1.32 0 2.64 0 4 C-2.1875 5.1875 -2.1875 5.1875 -5 6 C-7.8125 4.75 -7.8125 4.75 -10 3 C-10 2.34 -10 1.68 -10 1 C-3.375 -1.125 -3.375 -1.125 0 0 Z " fill="#8F6349" transform="translate(176,379)"/>
<path d="M0 0 C-3.62174279 3.62174279 -9.03284894 4.87956218 -14.0625 5.1875 C-15.0215625 5.0946875 -15.0215625 5.0946875 -16 5 C-13.65025865 1.47538798 -12.12608655 1.22674539 -8.109375 0.33984375 C-5.38288252 -0.09942448 -2.75429748 -0.13771487 0 0 Z " fill="#7D5337" transform="translate(211,114)"/>
<path d="M0 0 C0.33 0 0.66 0 1 0 C1.57374185 6.88490225 0.4753869 11.02667877 -3 17 C-3.33 17 -3.66 17 -4 17 C-3.45018084 10.95198929 -2.09570426 5.69398894 0 0 Z " fill="#F4DDC6" transform="translate(342,253)"/>
<path d="M0 0 C0.33 0 0.66 0 1 0 C1.66 3.63 2.32 7.26 3 11 C2.01 11.66 1.02 12.32 0 13 C-0.99 12.67 -1.98 12.34 -3 12 C-2.01 8.04 -1.02 4.08 0 0 Z " fill="#EDDAC2" transform="translate(321,270)"/>
<path d="M0 0 C0.33 0 0.66 0 1 0 C1.33 2.97 1.66 5.94 2 9 C3.65 9.33 5.3 9.66 7 10 C5.35 11.65 3.7 13.3 2 15 C-0.19219402 12.63310671 -0.9871902 11.48272731 -1.07421875 8.203125 C-0.88279297 6.74132812 -0.88279297 6.74132812 -0.6875 5.25 C-0.50767578 3.77273437 -0.50767578 3.77273437 -0.32421875 2.265625 C-0.21722656 1.51796875 -0.11023438 0.7703125 0 0 Z " fill="#F1E0C8" transform="translate(230,192)"/>
<path d="M0 0 C4.83256305 0.41421969 6.82679218 2.46413986 10 6 C9.360625 6.12375 8.72125 6.2475 8.0625 6.375 C7.0415625 6.684375 7.0415625 6.684375 6 7 C5.67 7.66 5.34 8.32 5 9 C4.731875 8.4225 4.46375 7.845 4.1875 7.25 C2.98383063 4.9693633 1.55522172 3.050065 0 1 C0 0.67 0 0.34 0 0 Z " fill="#F6E5CF" transform="translate(335,140)"/>
<path d="M0 0 C-1.40929697 3.47132095 -2.90605083 4.88093274 -6.125 6.75 C-6.84945313 7.17796875 -7.57390625 7.6059375 -8.3203125 8.046875 C-8.87460937 8.36140625 -9.42890625 8.6759375 -10 9 C-8.88767766 3.27948511 -5.94817734 0 0 0 Z " fill="#F5E2CA" transform="translate(341,354)"/>
<path d="M0 0 C0.66 0.33 1.32 0.66 2 1 C2 4.96 2 8.92 2 13 C1.01 13.495 1.01 13.495 0 14 C-0.19456705 12.04235617 -0.38044247 10.08384679 -0.5625 8.125 C-0.66691406 7.03445312 -0.77132813 5.94390625 -0.87890625 4.8203125 C-1 2 -1 2 0 0 Z " fill="#89654D" transform="translate(265,179)"/>
<path d="M0 0 C0 0.99 0 1.98 0 3 C-2.25 5 -2.25 5 -5 7 C-6.0209375 7.8971875 -6.0209375 7.8971875 -7.0625 8.8125 C-9 10 -9 10 -11.12109375 9.57421875 C-11.74113281 9.38472656 -12.36117188 9.19523437 -13 9 C-12.22914063 8.51789063 -11.45828125 8.03578125 -10.6640625 7.5390625 C-9.66117187 6.90742188 -8.65828125 6.27578125 -7.625 5.625 C-6.62726563 4.99851562 -5.62953125 4.37203125 -4.6015625 3.7265625 C-1.9751981 2.10730288 -1.9751981 2.10730288 0 0 Z " fill="#F1DDC3" transform="translate(343,285)"/>
<path d="M0 0 C0.66 1.32 1.32 2.64 2 4 C2.66 4 3.32 4 4 4 C4 4.66 4 5.32 4 6 C3.01 5.67 2.02 5.34 1 5 C-0.89212737 4.77820215 -2.78884472 4.59385985 -4.6875 4.4375 C-5.68136719 4.35371094 -6.67523438 4.26992188 -7.69921875 4.18359375 C-8.83810547 4.09271484 -8.83810547 4.09271484 -10 4 C-9.67 3.34 -9.34 2.68 -9 2 C-6.36 2.33 -3.72 2.66 -1 3 C-0.67 2.01 -0.34 1.02 0 0 Z " fill="#EFDAC3" transform="translate(258,266)"/>
<path d="M0 0 C0.99 0 1.98 0 3 0 C2.75 1.875 2.75 1.875 2 4 C0.68352881 4.69937532 -0.65022151 5.36729133 -2 6 C-2.33 6.99 -2.66 7.98 -3 9 C-3.66 9 -4.32 9 -5 9 C-3.76067171 5.56801397 -2.49698489 2.69674368 0 0 Z " fill="#95715E" transform="translate(124,155)"/>
<path d="M0 0 C3.83742934 0.09120033 7.52894004 0.55690667 11.3125 1.1875 C11.3125 1.5175 11.3125 1.8475 11.3125 2.1875 C5.4010256 2.96063045 0.1810408 3.33569277 -5.6875 2.1875 C-3.6875 0.1875 -3.6875 0.1875 0 0 Z " fill="#9A7462" transform="translate(262.6875,92.8125)"/>
<path d="M0 0 C4.29 0.33 8.58 0.66 13 1 C9.32312983 3.45124678 7.33872783 3.15495457 3 3 C2.01 3 1.02 3 0 3 C0 2.01 0 1.02 0 0 Z " fill="#885B44" transform="translate(278,209)"/>
<path d="M0 0 C-0.37994168 2.75457718 -0.8073633 3.82020574 -2.875 5.75 C-5 7 -5 7 -8 7 C-8 6.34 -8 5.68 -8 5 C-7.34 5 -6.68 5 -6 5 C-6 4.34 -6 3.68 -6 3 C-2.53846154 0 -2.53846154 0 0 0 Z " fill="#A07D6C" transform="translate(155,125)"/>
<path d="M0 0 C0.99 0.66 1.98 1.32 3 2 C1.87926138 2.83905565 0.75325453 3.67107831 -0.375 4.5 C-1.00148438 4.9640625 -1.62796875 5.428125 -2.2734375 5.90625 C-4 7 -4 7 -6 7 C-6 6.01 -6 5.02 -6 4 C-5.34 4 -4.68 4 -4 4 C-4 3.34 -4 2.68 -4 2 C-2.68 1.34 -1.36 0.68 0 0 Z " fill="#A27D6E" transform="translate(346,370)"/>
<path d="M0 0 C0.99 0 1.98 0 3 0 C3.66 0.66 4.32 1.32 5 2 C4.625 4.625 4.625 4.625 4 7 C2.02 5.35 0.04 3.7 -2 2 C-1.34 1.34 -0.68 0.68 0 0 Z " fill="#986D58" transform="translate(138,355)"/>
<path d="M0 0 C1.65 1.32 3.3 2.64 5 4 C4.34 5.32 3.68 6.64 3 8 C2.01 8 1.02 8 0 8 C-1.09658936 4.71023192 -0.79953138 3.28696233 0 0 Z " fill="#A27962" transform="translate(98,208)"/>
<path d="M0 0 C0.66 0.99 1.32 1.98 2 3 C-0.625 7.875 -0.625 7.875 -4 9 C-2.94124926 5.59687262 -1.99097846 2.98646769 0 0 Z " fill="#A47E6B" transform="translate(115,168)"/>
<path d="M0 0 C4 4.625 4 4.625 4 8 C2.68 7.67 1.36 7.34 0 7 C-1.125 2.25 -1.125 2.25 0 0 Z " fill="#F1E2CA" transform="translate(242,163)"/>
<path d="M0 0 C2 1 4 2 6 3 C6 3.66 6 4.32 6 5 C6.99 5.33 7.98 5.66 9 6 C7.02 6.99 7.02 6.99 5 8 C5 6.68 5 5.36 5 4 C4.071875 4.309375 4.071875 4.309375 3.125 4.625 C2.42375 4.74875 1.7225 4.8725 1 5 C0.34 4.34 -0.32 3.68 -1 3 C-0.34 3 0.32 3 1 3 C0.67 2.01 0.34 1.02 0 0 Z " fill="#A78672" transform="translate(343,123)"/>
<path d="M0 0 C0.66 0 1.32 0 2 0 C0.77782954 4.04256383 -0.62754296 7.49288959 -3 11 C-3.33 11 -3.66 11 -4 11 C-4 9.35 -4 7.7 -4 6 C-3.01 5.67 -2.02 5.34 -1 5 C-0.67 3.35 -0.34 1.7 0 0 Z " fill="#F6E3C9" transform="translate(374,309)"/>
<path d="M0 0 C2.05078125 0.03255208 4.1015625 0.06510417 6.15234375 0.09765625 C6.48234375 0.75765625 6.81234375 1.41765625 7.15234375 2.09765625 C6.03859375 2.22140625 4.92484375 2.34515625 3.77734375 2.47265625 C0.12130698 2.74423755 0.12130698 2.74423755 -1.84765625 5.09765625 C-2.41015625 3.16015625 -2.41015625 3.16015625 -2.84765625 1.09765625 C-1.84765625 0.09765625 -1.84765625 0.09765625 0 0 Z " fill="#855C40" transform="translate(310.84765625,297.90234375)"/>
<path d="M0 0 C2.38564077 0.57584432 4.66682784 1.22227595 7 2 C7.33 2.66 7.66 3.32 8 4 C8.66 4.33 9.32 4.66 10 5 C9.34 5.66 8.68 6.32 8 7 C5.96166576 5.7260411 3.96147874 4.38938077 2 3 C2 2.34 2 1.68 2 1 C1.34 0.67 0.68 0.34 0 0 Z " fill="#A78875" transform="translate(147,367)"/>
<path d="M0 0 C0.66 0.33 1.32 0.66 2 1 C1.01 2.32 0.02 3.64 -1 5 C-3.97 4.505 -3.97 4.505 -7 4 C-4.61426621 2.10786631 -2.92824652 0.97608217 0 0 Z " fill="#F0DCC7" transform="translate(193,121)"/>
<path d="M0 0 C4.95 0.99 4.95 0.99 10 2 C6 4 6 4 2.75 3.125 C1.8425 2.75375 0.935 2.3825 0 2 C0 1.34 0 0.68 0 0 Z " fill="#7A5238" transform="translate(216,385)"/>
<path d="M0 0 C2.64 0.33 5.28 0.66 8 1 C8 1.66 8 2.32 8 3 C8.66 3 9.32 3 10 3 C9.67 3.66 9.34 4.32 9 5 C4.545 3.02 4.545 3.02 0 1 C0 0.67 0 0.34 0 0 Z " fill="#A17C6C" transform="translate(174,386)"/>
<path d="M0 0 C0.66 0 1.32 0 2 0 C2 0.99 2 1.98 2 3 C2.804375 3.12375 3.60875 3.2475 4.4375 3.375 C5.7059375 3.684375 5.7059375 3.684375 7 4 C7.33 4.66 7.66 5.32 8 6 C3.25 5.125 3.25 5.125 1 4 C1 3.34 1 2.68 1 2 C0.34 1.67 -0.32 1.34 -1 1 C-0.67 0.67 -0.34 0.34 0 0 Z " fill="#A17F6E" transform="translate(157,373)"/>
<path d="M0 0 C0.33 1.32 0.66 2.64 1 4 C0.195625 4.12375 -0.60875 4.2475 -1.4375 4.375 C-2.7059375 4.684375 -2.7059375 4.684375 -4 5 C-4.33 5.66 -4.66 6.32 -5 7 C-5.66 6.34 -6.32 5.68 -7 5 C-4.69 3.35 -2.38 1.7 0 0 Z " fill="#896046" transform="translate(283,314)"/>
<path d="M0 0 C1.1875 1.6875 1.1875 1.6875 2 4 C0.67172689 6.85578718 -0.14643942 8.57321971 -3 10 C-2.21302675 6.58978257 -1.12880057 3.31114834 0 0 Z " fill="#EFDBC2" transform="translate(121,194)"/>
<path d="M0 0 C2.86724686 0.57344937 3.8614515 0.8614515 6 3 C6.125 5.625 6.125 5.625 6 8 C5.34 7.67 4.68 7.34 4 7 C3.375 4.4375 3.375 4.4375 3 2 C2.01 2 1.02 2 0 2 C0 1.34 0 0.68 0 0 Z " fill="#8C664E" transform="translate(226,159)"/>
<path d="M0 0 C2.475 0.495 2.475 0.495 5 1 C4.67 2.32 4.34 3.64 4 5 C2.68 5 1.36 5 0 5 C0 3.35 0 1.7 0 0 Z " fill="#814F31" transform="translate(306,377)"/>
<path d="M0 0 C0.66 0.33 1.32 0.66 2 1 C1.34 2.98 0.68 4.96 0 7 C-1.32 6.67 -2.64 6.34 -4 6 C-2.68 4.02 -1.36 2.04 0 0 Z " fill="#896046" transform="translate(366,326)"/>
<path d="M0 0 C4.875 2.75 4.875 2.75 6 5 C5.01 6.485 5.01 6.485 4 8 C0 2.25 0 2.25 0 0 Z " fill="#AF947F" transform="translate(112,323)"/>
<path d="M0 0 C0.99 0.33 1.98 0.66 3 1 C2.3125 2.9375 2.3125 2.9375 1 5 C-1.625 5.75 -1.625 5.75 -4 6 C-2.68 4.02 -1.36 2.04 0 0 Z " fill="#885F45" transform="translate(292,304)"/>
<path d="M0 0 C0.99 0.33 1.98 0.66 3 1 C2.375 2.875 2.375 2.875 1 5 C-2.125 6.25 -2.125 6.25 -5 7 C-3.35 4.69 -1.7 2.38 0 0 Z " fill="#84583E" transform="translate(339,268)"/>
<path d="M0 0 C3.08089673 2.77280706 4.68775452 5.06326356 6 9 C4.125 8.4375 4.125 8.4375 2 7 C0.75 3.375 0.75 3.375 0 0 Z " fill="#AA8A79" transform="translate(379,160)"/>
<path d="M0 0 C1.125 1.625 1.125 1.625 2 4 C1.125 7.25 1.125 7.25 0 10 C-0.33 10 -0.66 10 -1 10 C-1.125 2.25 -1.125 2.25 0 0 Z " fill="#EDD3BB" transform="translate(252,144)"/>
<path d="M0 0 C5.75 0.875 5.75 0.875 8 2 C8 2.66 8 3.32 8 4 C6.68 4 5.36 4 4 4 C4 3.34 4 2.68 4 2 C2.68 2 1.36 2 0 2 C0 1.34 0 0.68 0 0 Z " fill="#F4DEC6" transform="translate(285,114)"/>
<path d="M0 0 C7.625 1.75 7.625 1.75 11 4 C9.02 4.33 7.04 4.66 5 5 C5 4.01 5 3.02 5 2 C3.35 1.67 1.7 1.34 0 1 C0 0.67 0 0.34 0 0 Z " fill="#B08F7E" transform="translate(295,99)"/>
<path d="M0 0 C0.33 0.99 0.66 1.98 1 3 C-0.98 3.66 -2.96 4.32 -5 5 C-5.66 4.34 -6.32 3.68 -7 3 C-4.38058783 1.25372522 -2.96175123 0.61277612 0 0 Z " fill="#99735B" transform="translate(317,388)"/>
<path d="M0 0 C1.98 0.495 1.98 0.495 4 1 C4 1.66 4 2.32 4 3 C2.35 3.66 0.7 4.32 -1 5 C-0.67 3.35 -0.34 1.7 0 0 Z " fill="#906B58" transform="translate(332,378)"/>
<path d="M0 0 C0 0.66 0 1.32 0 2 C-2.3125 4.1875 -2.3125 4.1875 -5 6 C-5.99 5.67 -6.98 5.34 -8 5 C-7.01 4.67 -6.02 4.34 -5 4 C-5 3.34 -5 2.68 -5 2 C-2 0 -2 0 0 0 Z " fill="#AC8E7F" transform="translate(163,119)"/>
</svg>
